<?xml version="1.0" standalone="no"?>
<!DOCTYPE svg PUBLIC "-//W3C//DTD SVG 20010904//EN"
 "http://www.w3.org/TR/2001/REC-SVG-20010904/DTD/svg10.dtd">
<svg version="1.0" xmlns="http://www.w3.org/2000/svg"
 width="1280.000000pt" height="1279.000000pt" viewBox="0 0 1280.000000 1279.000000"
 preserveAspectRatio="xMidYMid meet">
<metadata>
Created by potrace 1.15, written by Peter Selinger 2001-2017
</metadata>
<g transform="translate(0.000000,1279.000000) scale(0.100000,-0.100000)"
fill="#000000" stroke="none">
<path d="M6415 12182 l-29 -15 69 -23 c86 -29 138 -30 218 -3 34 11 64 22 65
24 2 2 -9 10 -25 18 -40 20 -259 20 -298 -1z"/>
<path d="M10316 12168 c-40 -35 -44 -78 -11 -114 16 -17 25 -22 21 -12 -3 10
2 24 10 33 28 27 56 16 73 -29 14 -35 2 -83 -39 -161 -17 -32 -30 -64 -30 -72
0 -11 -7 -9 -28 9 l-29 23 31 10 c23 8 38 25 59 65 15 29 27 64 27 76 l0 23
-72 -20 c-97 -27 -184 -68 -287 -136 -86 -57 -206 -164 -242 -215 -19 -27 -19
-29 -3 -57 9 -15 29 -35 43 -44 27 -16 27 -15 74 43 26 32 80 83 120 113 70
54 212 137 232 136 6 0 -16 -13 -48 -30 l-59 -30 39 -28 c38 -28 123 -118 123
-130 0 -6 -84 -51 -95 -51 -3 0 -5 8 -5 19 0 15 -10 20 -53 25 -35 5 -63 3
-80 -5 -23 -10 -30 -9 -45 4 -29 26 -62 22 -62 -7 0 -38 -46 -86 -81 -86 -97
0 -156 105 -115 204 24 57 115 116 181 116 19 0 174 90 175 102 0 3 -22 14
-50 23 -40 13 -71 15 -163 9 -110 -6 -114 -6 -141 18 -22 18 -27 29 -22 46 8
23 35 29 53 11 20 -20 27 29 8 57 -26 40 -59 50 -101 31 -32 -16 -37 -16 -57
-2 -12 8 -41 15 -64 15 -43 0 -43 0 -45 -37 -2 -57 1 -75 16 -92 12 -14 12
-19 0 -35 -18 -25 -18 -67 0 -91 14 -19 15 -19 33 -2 23 20 34 21 86 6 l37
-10 -31 -45 c-77 -113 -87 -228 -29 -352 33 -71 112 -176 161 -213 28 -22 31
-27 20 -47 -10 -19 -20 -22 -71 -22 -68 0 -67 -1 -43 77 11 36 14 59 8 67 -6
7 -24 34 -42 61 l-32 48 -12 -29 c-66 -168 -99 -306 -99 -414 l0 -85 43 -40
c23 -22 46 -39 51 -37 5 2 3 -4 -4 -13 -12 -15 -15 -14 -26 7 -7 13 -26 33
-43 46 l-31 23 0 -72 c0 -39 7 -95 16 -125 14 -49 14 -59 0 -108 -9 -30 -16
-73 -16 -95 l0 -42 38 6 c112 18 99 22 112 -42 64 -321 170 -560 347 -790 35
-45 63 -84 63 -87 0 -3 -18 1 -40 10 -49 20 -61 12 -31 -20 27 -28 15 -41 -30
-31 -39 9 -45 26 -23 63 19 33 14 62 -11 62 -18 0 -35 -39 -35 -78 0 -39 31
-84 74 -107 l37 -20 19 25 20 25 0 -37 c0 -50 16 -88 37 -88 10 0 28 -16 41
-35 22 -35 63 -48 77 -25 3 6 17 10 30 10 15 0 33 11 46 29 28 38 45 31 41
-17 -2 -21 3 -55 11 -74 17 -39 14 -48 -15 -48 -22 0 -24 -23 -3 -40 12 -10
19 -10 37 2 19 12 27 12 48 1 65 -34 171 -1 216 66 15 23 32 41 40 41 7 0 19
3 28 6 10 4 18 -1 23 -12 14 -41 48 -77 87 -95 49 -22 125 -25 151 -5 16 12
22 12 42 -1 19 -12 26 -13 38 -3 22 18 18 38 -7 42 -15 2 -21 9 -19 18 23 83
24 110 8 152 l-17 43 52 47 c56 49 72 49 66 2 -2 -23 -8 -29 -26 -29 -45 0
-58 -67 -19 -103 13 -12 33 -22 45 -22 11 0 24 -4 27 -10 15 -23 56 -10 76 25
12 20 29 35 40 35 25 0 39 30 39 82 l0 43 20 -25 19 -25 37 20 c43 23 74 68
74 107 0 39 -17 78 -35 78 -25 0 -29 -28 -9 -65 21 -40 15 -51 -34 -61 -25 -5
-32 -3 -32 9 0 8 7 20 15 27 26 22 1 32 -38 15 -51 -21 -95 -2 -44 20 12 6 22
19 22 30 0 17 -6 20 -42 17 -24 -2 -43 -2 -43 0 0 3 25 42 56 89 116 175 210
411 258 647 17 82 28 117 37 116 8 0 40 -4 72 -7 l57 -7 0 42 c-1 24 -7 54
-15 68 -8 14 -14 50 -14 80 0 30 6 66 14 80 9 16 14 54 15 103 l0 78 -37 -30
c-20 -17 -42 -40 -48 -51 -11 -20 -12 -20 -26 -4 -8 10 -9 15 -3 11 6 -3 31
12 54 34 36 35 44 49 48 89 10 106 -45 345 -108 471 -61 121 -179 273 -263
337 l-54 42 -54 -15 c-92 -25 -99 -27 -99 -34 0 -3 21 -19 47 -36 107 -67 238
-216 303 -345 18 -36 70 -174 70 -187 0 -2 -26 -3 -58 -3 -51 0 -60 3 -69 23
-9 19 -5 28 30 64 l41 43 -18 37 c-10 21 -34 64 -53 96 -27 45 -40 57 -59 57
-30 0 -71 38 -80 74 -7 30 -47 36 -62 9 -8 -14 -14 -15 -40 -4 -32 13 -142 6
-142 -10 0 -4 -20 -1 -45 9 -25 9 -45 20 -45 23 0 18 130 136 175 160 106 56
230 58 294 3 30 -25 71 -101 71 -132 0 -24 98 -164 109 -157 17 10 33 108 29
169 -5 63 -50 168 -82 195 -26 21 -19 28 34 35 38 5 56 3 76 -10 22 -15 27
-15 35 -3 12 20 11 76 -3 98 -9 14 -8 23 5 42 17 24 22 74 11 103 -8 21 -82
21 -112 0 -21 -14 -25 -14 -47 0 -33 21 -57 20 -89 -5 -19 -15 -26 -30 -26
-55 0 -19 5 -34 10 -34 6 0 10 5 10 11 0 6 10 9 23 7 30 -4 34 -39 6 -64 -18
-16 -41 -20 -163 -24 -132 -6 -146 -8 -210 -38 -38 -18 -95 -55 -127 -83 -35
-30 -59 -45 -59 -36 0 31 -39 64 -82 71 -24 4 -58 9 -75 12 -20 4 -33 2 -33
-4 0 -6 -13 -24 -30 -40 -56 -56 -28 -152 45 -152 31 0 34 3 32 28 -2 23 2 28
26 30 35 4 42 -14 23 -60 -15 -35 -17 -36 -58 -31 -72 7 -82 12 -108 47 l-25
35 -27 -27 c-16 -14 -28 -31 -28 -37 0 -7 -27 -17 -61 -22 l-61 -10 -14 33
c-8 18 -14 43 -14 54 0 17 5 21 28 18 22 -2 27 -8 27 -30 -1 -24 3 -28 26 -28
14 0 38 9 53 21 21 16 26 29 26 64 0 35 -5 48 -26 64 -15 12 -33 21 -40 21
-18 0 -18 17 1 70 30 86 10 169 -55 224 -42 35 -117 37 -154 4z m-649 -139
c10 -17 36 -42 58 -56 38 -23 38 -24 10 -18 -49 11 -88 38 -102 73 -11 27 -11
32 1 32 8 0 23 -14 33 -31z m1967 9 c-9 -33 -34 -59 -71 -74 -51 -22 -61 -16
-20 11 20 14 44 39 52 55 19 36 50 42 39 8z m-1549 -528 c9 -15 -16 -47 -58
-70 -31 -18 -50 -21 -98 -18 -83 6 -94 23 -15 23 58 0 67 3 107 37 47 40 55
43 64 28z m1145 -18 c52 -43 74 -52 127 -53 43 0 45 -1 23 -10 -14 -6 -49 -9
-78 -6 -45 3 -59 9 -92 42 -22 21 -37 42 -34 47 8 13 17 10 54 -20z m5 -2043
c0 -59 -4 -91 -14 -103 -25 -30 -34 -12 -32 61 1 45 -3 84 -13 106 -14 34 -13
38 7 63 l21 27 15 -34 c10 -21 15 -66 16 -120z m-1003 -53 c2 -41 -1 -61 -10
-64 -19 -6 -42 60 -42 120 l0 53 24 -25 c19 -20 25 -38 28 -84z m742 -76 c12
0 27 5 34 12 18 18 26 -15 12 -56 -22 -68 -100 -102 -159 -72 l-31 17 21 29
c28 37 20 63 -18 55 -16 -3 -1 7 32 23 57 27 61 28 73 10 7 -10 23 -18 36 -18z
m-556 11 c9 -5 43 -15 75 -22 31 -7 57 -18 57 -24 0 -7 9 -24 21 -39 l20 -26
-35 -17 c-69 -32 -153 17 -163 96 -6 43 -3 47 25 32z"/>
<path d="M10805 12171 c-35 -20 -61 -56 -71 -95 -5 -22 -3 -26 17 -26 13 0 40
-3 60 -6 31 -5 38 -3 43 14 4 12 16 24 26 27 24 8 60 -11 60 -30 0 -21 17 -18
30 4 18 34 12 80 -15 106 -31 31 -105 34 -150 6z"/>
<path d="M6391 12114 c-11 -8 -21 -22 -21 -30 0 -8 31 -54 69 -102 67 -85 111
-158 111 -184 0 -17 -49 -77 -50 -61 0 21 -73 95 -107 110 -43 18 -127 17
-168 -2 -37 -18 -55 -51 -55 -101 0 -83 59 -138 141 -133 31 3 43 -1 51 -14
12 -23 1 -37 -78 -93 -63 -45 -86 -55 -64 -29 11 13 6 15 -37 15 -27 0 -75 -9
-107 -20 -62 -22 -119 -20 -183 6 -31 12 -33 12 -54 -18 -22 -30 -22 -31 -4
-44 10 -8 25 -14 32 -14 7 0 13 -4 13 -9 0 -8 -60 0 -92 14 -23 9 -23 18 3 41
25 23 49 66 49 90 0 9 -15 31 -34 50 -47 47 -92 47 -143 1 l-38 -34 -40 18
c-117 54 -267 -13 -267 -118 0 -36 11 -57 19 -36 9 25 70 54 100 47 53 -11
123 -36 123 -42 0 -4 -10 -70 -22 -147 -29 -186 -31 -559 -5 -738 80 -537 321
-957 695 -1207 101 -68 299 -164 337 -164 39 0 227 90 329 158 363 242 595
618 690 1118 51 267 47 649 -10 954 -6 31 -4 32 43 47 102 32 119 31 170 -16
l22 -20 6 26 c28 108 -144 196 -270 138 l-40 -18 -38 34 c-47 41 -92 44 -135
8 -53 -45 -48 -105 13 -154 l26 -20 -30 -15 c-16 -9 -43 -16 -58 -16 l-28 1
31 17 31 17 -22 31 c-18 27 -24 30 -45 22 -14 -5 -49 -14 -78 -19 -45 -9 -62
-7 -113 10 -32 12 -82 21 -110 21 -47 0 -50 -1 -38 -17 12 -16 11 -16 -16 1
-16 10 -53 36 -82 58 -44 33 -51 43 -44 61 7 18 15 21 49 19 51 -4 108 22 126
57 56 109 4 191 -123 191 -81 0 -137 -32 -181 -103 l-18 -28 -21 35 -22 35 21
41 c12 23 53 84 91 136 39 52 69 102 67 111 -2 8 -12 22 -23 29 -17 11 -29 9
-85 -16 -77 -35 -91 -36 -150 -9 -81 37 -86 38 -109 23z m33 -405 c14 -17 26
-36 26 -44 0 -18 -29 -40 -38 -29 -4 5 -20 23 -36 41 -24 27 -27 35 -16 48 19
22 35 18 64 -16z m354 6 c2 -13 -11 -33 -32 -54 -30 -29 -38 -32 -51 -21 -22
18 -19 34 15 70 32 35 63 37 68 5z"/>
<path d="M6280 12051 c-5 -11 -26 -25 -45 -31 -27 -9 -39 -22 -56 -58 -21 -46
-22 -47 -64 -44 -29 3 -56 -3 -83 -17 -23 -12 -50 -21 -60 -21 -33 0 -45 -24
-22 -45 13 -11 20 -31 20 -52 0 -34 20 -61 68 -93 18 -13 21 -20 14 -45 -6
-20 -4 -43 5 -69 7 -21 13 -52 13 -68 0 -27 2 -29 17 -17 10 9 43 14 91 14 69
1 76 3 98 28 32 37 30 44 -11 51 -139 26 -170 225 -45 288 48 25 135 23 185
-2 21 -11 40 -18 42 -16 14 14 -25 94 -68 142 -27 30 -49 59 -49 64 0 18 -39
11 -50 -9z"/>
<path d="M6800 12057 c0 -7 -22 -34 -49 -61 -33 -33 -53 -62 -61 -92 -7 -25
-11 -47 -8 -49 2 -3 22 4 43 15 44 22 126 27 172 9 41 -15 82 -58 93 -98 11
-41 -2 -105 -29 -138 -23 -27 -81 -63 -103 -63 -23 0 -23 -22 1 -51 17 -21 27
-23 93 -24 48 0 81 -5 91 -14 15 -12 17 -10 17 17 0 17 7 47 16 66 14 28 15
40 5 67 -10 29 -10 35 5 44 54 32 74 58 74 93 0 23 8 44 22 59 19 20 20 25 8
33 -8 5 -23 10 -33 10 -10 0 -36 9 -59 21 -28 14 -54 20 -84 17 -43 -3 -43 -3
-60 41 -13 35 -25 47 -59 62 -24 10 -45 26 -49 34 -7 18 -46 20 -46 2z"/>
<path d="M10569 12044 c-11 -3 -18 -21 -22 -52 -3 -26 -8 -54 -11 -62 -5 -13
10 -15 97 -17 116 -2 219 -16 288 -39 l45 -14 69 44 68 45 -29 12 c-85 33
-147 51 -219 63 -89 16 -261 27 -286 20z"/>
<path d="M2315 11974 c-97 -9 -201 -27 -254 -44 -139 -44 -288 -144 -341 -226
-15 -25 -42 -48 -74 -64 -35 -18 -60 -41 -85 -78 l-35 -52 -77 0 c-71 0 -77
-2 -83 -22 -14 -47 -19 -414 -7 -533 17 -165 55 -348 101 -486 70 -210 206
-450 331 -584 l59 -63 -43 -10 c-24 -6 -56 -23 -71 -37 l-27 -25 -33 35 c-38
40 -77 46 -127 19 -31 -16 -59 -66 -59 -106 0 -18 -12 -29 -53 -48 -63 -30
-97 -82 -97 -150 0 -71 9 -76 65 -41 26 17 67 33 91 37 33 5 44 11 44 24 0 32
48 79 88 86 50 10 137 -10 219 -49 64 -30 74 -32 178 -31 92 0 123 5 188 27
91 32 143 31 252 -4 51 -15 98 -22 170 -23 96 -1 103 1 185 38 66 30 101 40
155 44 65 4 73 2 102 -22 17 -15 34 -39 38 -55 5 -24 12 -29 47 -34 22 -3 62
-19 89 -36 49 -30 49 -30 60 -9 17 31 5 103 -24 147 -18 27 -40 44 -71 56 -37
14 -46 22 -46 42 0 41 -27 91 -59 107 -51 27 -92 21 -131 -19 -31 -32 -36 -34
-47 -19 -6 9 -32 26 -57 38 l-45 22 56 69 c218 271 355 634 394 1045 12 126 7
517 -6 553 -6 14 -20 17 -79 17 -67 0 -74 2 -84 24 -18 39 -73 96 -113 117
-21 10 -45 32 -53 47 -24 47 -137 145 -211 184 -126 65 -296 102 -420 92z
m-345 -2270 c0 -8 10 -14 23 -14 12 0 29 -5 37 -10 11 -7 5 -10 -22 -10 -33 0
-40 -4 -51 -32 -13 -31 -12 -33 7 -40 34 -10 124 -9 171 3 25 6 53 8 62 4 26
-11 -68 -35 -138 -35 -52 0 -159 24 -159 36 0 3 9 17 20 31 12 16 20 41 20 66
0 34 2 38 15 27 8 -7 15 -19 15 -26z m777 -76 c15 -17 14 -19 -23 -34 -55 -23
-139 -29 -209 -14 -48 10 -56 14 -39 21 12 4 41 3 65 -3 38 -8 156 -5 166 5 2
2 -2 18 -8 35 -8 25 -17 32 -37 33 l-27 0 25 12 c14 6 29 18 34 26 7 12 12 6
23 -24 7 -21 21 -47 30 -57z"/>
<path d="M3590 10653 c-104 -33 -116 -39 -138 -75 -22 -33 -26 -35 -59 -28
-47 11 -79 -2 -103 -42 -27 -45 -26 -90 5 -126 25 -29 25 -31 6 -37 -11 -3
-30 -22 -42 -41 -19 -32 -20 -40 -10 -75 18 -61 80 -83 152 -54 13 5 18 -2 23
-37 16 -107 -46 -257 -152 -370 -50 -53 -63 -71 -52 -78 18 -11 51 15 118 93
60 70 106 159 123 237 11 52 8 175 -7 297 -10 85 12 133 61 133 14 0 26 7 30
19 3 10 30 56 60 101 31 45 53 86 50 91 -7 11 -7 11 -65 -8z"/>
<path d="M1000 10655 c0 -2 20 -35 44 -72 24 -37 51 -83 60 -100 12 -24 24
-33 41 -33 33 0 65 -44 65 -89 0 -20 -7 -76 -16 -126 -10 -57 -13 -110 -9
-145 9 -72 48 -190 82 -243 33 -53 142 -167 159 -167 31 0 20 23 -38 83 -116
117 -181 287 -152 395 5 17 11 21 23 16 81 -34 151 2 151 79 0 32 -7 46 -33
71 l-34 32 21 27 c31 41 26 100 -10 139 -26 27 -34 29 -81 26 -49 -4 -53 -3
-64 24 -13 33 -40 49 -121 72 -56 16 -88 20 -88 11z"/>
<path d="M3513 10425 c-37 -26 -45 -72 -28 -155 9 -41 17 -75 18 -77 2 -1 13
50 25 114 12 64 19 120 14 125 -4 4 -17 1 -29 -7z"/>
<path d="M1113 10408 c3 -13 13 -68 23 -122 l18 -100 13 60 c19 94 17 137 -10
162 -31 29 -51 29 -44 0z"/>
<path d="M1386 10141 c-10 -15 13 -111 38 -165 33 -71 91 -136 122 -136 23 0
21 4 -25 50 -50 50 -80 112 -103 212 -11 46 -21 58 -32 39z"/>
<path d="M3237 10100 c-8 -69 -59 -170 -107 -214 -22 -20 -40 -38 -40 -41 0
-3 11 -5 25 -5 18 0 35 14 64 53 52 69 68 104 86 179 11 48 12 64 2 70 -21 13
-24 9 -30 -42z"/>
<path d="M1254 10086 c3 -30 16 -81 27 -111 25 -66 109 -196 147 -225 l26 -21
9 23 c4 13 17 32 28 44 19 20 19 21 -7 45 -42 38 -75 97 -109 193 -28 77 -36
90 -56 91 -13 1 -35 5 -48 9 -24 8 -24 8 -17 -48z"/>
<path d="M3354 10132 c-41 -3 -42 -4 -53 -49 -20 -77 -67 -169 -111 -217 l-42
-46 26 -31 c14 -17 26 -38 26 -47 0 -24 73 51 121 123 49 75 81 170 77 227
l-3 43 -41 -3z"/>
<path d="M1615 9572 c-30 -6 -45 -22 -45 -47 0 -21 5 -22 107 -28 133 -9 238
-9 230 -1 -11 11 -181 66 -227 73 -25 4 -54 5 -65 3z"/>
<path d="M2937 9565 c-32 -8 -66 -19 -77 -25 -10 -6 -43 -16 -72 -24 l-53 -14
35 -6 c19 -4 98 -4 175 1 148 8 163 15 133 56 -18 24 -72 29 -141 12z"/>
<path d="M1935 8129 c-49 -14 -110 -73 -135 -131 -19 -43 -24 -76 -28 -176
l-4 -123 -53 6 c-73 10 -189 -10 -255 -43 -75 -37 -112 -91 -118 -172 l-4 -60
-134 0 -134 0 0 -34 c0 -55 -25 -66 -148 -66 -102 0 -104 0 -134 -30 -27 -27
-30 -36 -25 -72 7 -53 26 -71 84 -78 l48 -5 27 -71 c122 -319 126 -654 10
-998 l-37 -109 -39 -4 c-51 -5 -75 -19 -86 -49 -17 -44 -11 -74 19 -105 29
-28 32 -29 133 -29 123 0 148 -11 148 -66 l0 -34 1250 0 1250 0 0 30 c0 57 27
70 146 70 103 0 106 1 135 29 54 55 25 148 -48 153 -15 1 -37 2 -47 2 -21 2
-34 33 -66 156 -51 198 -65 492 -35 694 15 100 60 286 77 319 6 12 21 17 54
17 89 0 127 88 65 151 -29 28 -32 29 -135 29 -119 0 -146 13 -146 70 l0 30
-140 0 -140 0 0 50 c0 79 -46 152 -121 190 -52 27 -161 44 -243 37 l-71 -5 3
82 c7 157 -30 260 -116 320 -84 59 -205 34 -232 -49 -9 -27 -8 -40 2 -62 17
-36 63 -62 79 -46 9 9 6 19 -10 42 -18 24 -20 35 -11 51 26 49 89 50 115 0 21
-41 19 -64 -7 -75 -18 -8 -24 -20 -26 -53 -3 -36 1 -47 28 -73 17 -17 37 -29
45 -26 7 3 30 9 49 13 l36 6 0 -70 0 -70 -66 -31 c-36 -17 -94 -53 -128 -80
l-63 -50 -9 37 c-8 33 -12 37 -42 37 -28 0 -32 3 -32 27 0 40 -20 78 -42 78
-12 0 -18 7 -18 24 0 32 24 50 55 42 21 -5 25 -12 25 -41 0 -27 4 -35 18 -35
26 0 42 20 42 53 0 40 -14 62 -49 77 -62 25 -141 -31 -141 -102 0 -15 -5 -30
-11 -34 -17 -10 -3 -71 25 -115 20 -29 22 -38 11 -43 -7 -2 -19 -14 -25 -26
-9 -17 -6 -25 19 -50 l29 -30 -96 0 c-78 1 -93 3 -77 12 40 23 48 70 15 88
-20 10 -19 11 5 49 29 44 43 105 26 115 -6 4 -11 18 -11 32 0 40 -26 80 -65
99 -42 19 -76 14 -105 -15 -34 -34 -20 -110 20 -110 16 0 20 7 20 35 0 29 4
36 25 41 31 8 55 -10 55 -42 0 -17 -6 -24 -18 -24 -22 0 -42 -38 -42 -79 0
-25 -3 -27 -30 -23 -25 4 -31 0 -40 -23 -6 -15 -8 -37 -4 -48 4 -14 -13 -4
-57 32 -35 29 -96 68 -136 88 -63 31 -72 39 -78 69 -8 44 4 104 20 104 8 0 26
-5 40 -10 15 -6 37 -7 51 -4 53 14 74 128 27 149 -27 11 -29 34 -8 75 19 37
57 48 91 26 36 -24 40 -43 15 -77 -39 -53 1 -69 50 -20 34 35 37 64 9 109 -33
53 -101 73 -175 51z m819 -220 c-3 -5 -10 -7 -15 -3 -5 3 -7 10 -3 15 3 5 10
7 15 3 5 -3 7 -10 3 -15z m-997 -255 c25 -5 34 -15 52 -57 11 -29 39 -76 61
-105 22 -29 40 -55 40 -57 0 -3 -113 -5 -250 -4 -237 1 -251 2 -261 20 -20 38
11 77 72 92 21 5 28 2 37 -18 6 -13 22 -27 36 -31 34 -8 94 13 107 38 11 20 8
68 -5 100 -6 12 -2 18 16 21 38 7 64 7 95 1z m1221 -2 c10 -7 10 -15 2 -36
-24 -63 5 -112 72 -123 36 -5 69 14 80 47 6 20 75 -7 95 -36 12 -19 13 -30 5
-48 l-11 -24 -251 -1 c-201 -1 -250 1 -244 11 5 7 22 32 40 54 17 23 42 67 54
98 13 30 30 57 39 59 29 8 106 7 119 -1z m-221 -75 c-15 -24 -44 -67 -67 -96
l-40 -51 -62 0 -62 0 49 51 c49 51 194 154 203 145 2 -3 -7 -25 -21 -49z m303
43 c0 -5 -4 -10 -10 -10 -5 0 -10 5 -10 10 0 6 5 10 10 10 6 0 10 -4 10 -10z
m-1123 -42 c28 -17 78 -57 110 -87 l58 -56 -60 -3 -60 -3 -40 45 c-22 25 -53
69 -69 97 -33 60 -28 61 61 7z"/>
<path d="M1457 8090 c-22 -18 -29 -19 -46 -8 -25 15 -38 4 -21 -17 11 -13 10
-21 -5 -48 -26 -49 -17 -69 37 -88 62 -20 70 -29 27 -29 -48 0 -78 -23 -63
-47 7 -12 8 -25 2 -38 -14 -31 7 -74 44 -89 18 -8 38 -12 45 -9 24 9 14 38
-17 50 -35 13 -37 22 -12 54 26 31 92 29 162 -6 71 -36 83 -23 47 50 -32 67
-36 134 -9 158 28 25 49 20 61 -14 15 -44 47 -36 44 11 -2 51 -31 70 -103 67
-32 -1 -62 -6 -66 -10 -4 -4 -10 -24 -14 -44 l-6 -38 -18 52 c-22 67 -45 78
-89 43z m70 -110 c34 -20 83 -100 62 -100 -34 0 -119 82 -119 114 0 12 25 6
57 -14z"/>
<path d="M3112 8101 c-8 -5 -22 -33 -32 -62 -18 -52 -19 -53 -19 -19 -2 55
-13 64 -81 67 -54 2 -64 0 -86 -22 -17 -17 -24 -34 -22 -53 4 -40 36 -42 49
-3 21 61 79 26 79 -48 0 -25 -10 -62 -26 -93 -35 -69 -23 -79 54 -45 58 26
116 34 138 19 18 -11 33 -47 26 -59 -4 -6 -17 -13 -29 -17 -35 -11 -30 -46 5
-46 56 0 98 62 73 108 -7 13 -7 22 1 30 18 18 -7 39 -55 47 -23 4 -35 9 -27
12 82 25 100 35 100 59 0 14 -7 36 -16 49 -13 20 -14 28 -4 40 18 21 3 32 -21
16 -17 -10 -24 -10 -37 2 -23 20 -54 28 -70 18z m38 -132 c-13 -32 -82 -89
-106 -89 -18 0 -1 46 29 79 21 23 78 53 86 45 2 -2 -2 -18 -9 -35z"/>
<path d="M5831 7955 c-86 -16 -139 -34 -231 -80 -88 -43 -114 -49 -150 -30
-41 21 -59 19 -66 -10 -8 -31 17 -72 54 -87 37 -16 36 -16 22 -33 -17 -21 -60
-19 -122 5 -91 34 -115 20 -58 -35 61 -58 18 -94 -69 -59 -62 26 -74 59 -39
106 33 44 41 70 28 102 -8 22 -15 27 -38 24 -62 -7 -87 -150 -42 -242 30 -62
96 -112 174 -132 19 -4 27 1 44 30 33 56 48 47 44 -25 -6 -102 31 -168 96
-169 10 0 26 -18 38 -43 28 -55 78 -90 121 -84 l31 5 4 -436 c4 -421 5 -439
27 -507 28 -86 85 -185 146 -253 49 -54 52 -66 8 -32 -14 11 -32 20 -40 20
-29 0 -70 -30 -88 -64 -13 -23 -29 -37 -47 -42 -43 -9 -60 -43 -59 -119 0 -36
-3 -65 -6 -65 -4 0 -18 14 -33 31 l-26 32 -44 -20 c-56 -25 -107 -81 -116
-128 -10 -54 1 -125 23 -147 38 -37 76 11 48 62 -41 73 -40 70 -18 91 26 27
100 38 108 16 4 -8 -4 -25 -19 -40 -50 -50 -32 -58 57 -27 44 15 62 18 77 10
11 -6 20 -12 20 -14 0 -2 -16 -13 -35 -25 -27 -16 -35 -27 -35 -49 0 -39 6
-43 46 -26 34 14 38 13 125 -26 123 -55 204 -73 306 -67 97 6 170 35 236 96
24 23 46 41 48 41 3 0 6 -14 7 -31 3 -43 18 -66 53 -84 40 -21 51 -12 33 30
-14 35 -19 111 -8 138 4 12 13 10 51 -10 44 -25 46 -25 80 -9 20 9 38 14 41
11 14 -13 6 -113 -10 -138 -13 -18 -14 -26 -5 -30 36 -13 97 50 97 101 0 21 4
19 53 -21 140 -114 326 -127 517 -36 92 44 112 49 147 34 34 -14 53 -5 53 25
0 21 -36 60 -55 60 -19 0 -19 14 0 30 12 10 26 9 74 -9 32 -11 63 -21 70 -21
18 0 13 25 -9 45 -11 10 -20 27 -20 38 0 17 5 19 45 15 25 -3 52 -11 60 -18
21 -17 19 -53 -6 -84 -24 -31 -22 -74 4 -90 42 -25 81 87 58 164 -15 50 -45
87 -89 109 -69 35 -79 35 -98 1 -10 -16 -21 -30 -25 -30 -4 0 -9 31 -11 69 -4
74 -24 111 -59 111 -10 0 -32 20 -49 46 -18 25 -43 49 -57 55 l-25 9 35 48
c46 62 81 135 103 208 15 51 18 118 21 501 l4 441 33 6 c36 7 75 43 100 94 9
17 23 32 31 32 28 0 67 25 81 51 8 17 14 58 14 104 0 58 3 75 14 75 8 0 17 -8
21 -19 3 -10 14 -26 25 -36 19 -17 22 -17 67 0 64 25 138 100 153 156 23 86
-6 198 -54 207 -49 10 -63 -67 -21 -116 45 -54 26 -102 -49 -123 -77 -21 -101
12 -49 66 27 28 33 39 24 48 -9 9 -27 6 -74 -11 -72 -26 -119 -28 -137 -7 -10
13 -7 17 23 30 40 16 57 40 57 79 0 35 -14 40 -64 21 l-45 -17 -89 41 c-127
59 -193 79 -292 92 -157 20 -307 -26 -417 -129 l-53 -49 0 37 c0 64 -73 143
-116 126 -13 -5 -13 -10 1 -37 9 -17 19 -55 22 -85 l6 -54 -116 0 c-93 0 -116
3 -121 15 -8 22 9 100 28 130 15 23 15 26 0 32 -9 3 -31 -2 -51 -11 -39 -18
-78 -92 -70 -132 3 -20 -3 -17 -48 24 -67 62 -158 109 -242 127 -82 18 -124
17 -222 0z m88 -51 l32 -7 -53 -29 c-29 -16 -69 -44 -88 -63 -29 -28 -44 -34
-85 -37 l-50 -3 -6 -95 c-4 -52 -12 -113 -19 -135 -11 -35 -10 -180 2 -250 2
-15 -3 -21 -24 -23 -23 -3 -30 3 -50 40 -21 39 -23 56 -23 173 0 107 4 143 22
201 49 155 201 256 342 228z m1406 -15 c151 -46 229 -189 230 -419 0 -92 -3
-111 -25 -155 -17 -35 -32 -51 -48 -53 -23 -3 -23 -3 -20 110 2 62 2 177 1
256 l-3 142 -61 0 c-56 0 -64 3 -107 39 -26 21 -67 49 -92 61 -39 20 -42 24
-25 31 35 13 81 10 150 -12z m-1054 -102 c22 -16 18 -17 -96 -17 -95 1 -116 3
-100 12 53 31 155 33 196 5z m749 0 c34 -15 31 -15 -90 -16 l-125 0 35 20 c41
23 122 21 180 -4z m-1090 -7 c0 -5 -15 -10 -32 -10 -25 0 -29 3 -18 10 20 13
50 13 50 0z m1295 0 c17 -7 15 -9 -12 -9 -18 -1 -33 4 -33 9 0 12 17 12 45 0z
m465 -220 c0 -5 -4 -10 -10 -10 -5 0 -10 5 -10 10 0 6 5 10 10 10 6 0 10 -4
10 -10z m-2250 -10 c0 -5 -4 -10 -10 -10 -5 0 -10 5 -10 10 0 6 5 10 10 10 6
0 10 -4 10 -10z m387 -1621 c7 -7 8 -21 2 -42 -12 -41 -11 -121 1 -175 25
-106 107 -217 196 -262 l49 -25 -50 -3 c-115 -7 -217 61 -250 169 -36 116 -29
286 12 332 19 20 25 21 40 6z m1515 -46 c18 -53 15 -195 -7 -271 -13 -45 -30
-77 -62 -112 -53 -59 -108 -82 -183 -78 l-55 3 35 19 c150 81 239 257 210 417
-9 49 -9 64 1 70 21 12 46 -8 61 -48z m-1074 -201 c87 -46 91 -50 64 -55 -16
-3 -39 -3 -51 0 -14 4 -21 1 -21 -9 0 -23 34 -48 73 -55 41 -6 40 -21 -2 -46
-37 -22 -113 -22 -159 0 -19 9 -64 43 -98 76 -35 32 -68 56 -74 52 -7 -4 1
-28 21 -66 18 -33 29 -62 26 -65 -11 -11 -78 29 -108 65 -38 46 -63 128 -50
164 13 33 28 42 48 26 13 -11 18 -10 34 10 11 13 19 36 19 52 l0 29 93 -64
c50 -35 134 -86 185 -114z m852 130 c0 -10 6 -27 14 -38 13 -16 18 -17 35 -7
16 10 23 10 36 -3 35 -36 -2 -153 -68 -211 -35 -31 -74 -49 -83 -40 -3 2 10
32 28 65 18 33 30 64 26 68 -4 3 -36 -19 -70 -51 -109 -101 -210 -126 -279
-68 l-32 28 42 7 c51 9 71 23 71 50 0 16 -5 19 -23 15 -12 -4 -28 -2 -36 2
-10 6 21 27 105 70 66 33 142 76 169 95 58 40 65 42 65 18z"/>
<path d="M9274 7920 c-155 -61 -236 -241 -190 -420 42 -164 150 -246 339 -258
101 -6 113 -20 42 -51 -91 -40 -108 -121 -50 -237 19 -38 35 -84 35 -103 0
-28 3 -33 19 -28 21 5 31 -16 31 -69 0 -55 29 -206 61 -314 30 -105 103 -271
159 -362 17 -27 30 -50 30 -52 0 -2 -39 -6 -87 -9 -198 -13 -357 -113 -393
-248 -31 -115 38 -247 163 -311 57 -29 176 -37 212 -14 30 20 33 54 6 87 -17
21 -30 24 -127 29 -60 4 -121 13 -137 20 -73 35 -95 156 -44 243 30 51 95 97
183 128 77 28 244 33 269 8 15 -15 8 -16 -82 -15 -153 1 -282 -50 -346 -135
-25 -35 -26 -116 -1 -158 23 -39 34 -39 34 -1 0 73 72 155 165 187 104 37 315
14 361 -38 19 -22 19 -22 -1 -15 -31 12 -118 36 -133 36 -8 0 -12 -5 -10 -12
2 -6 30 -18 62 -25 88 -20 191 -79 270 -155 39 -37 74 -64 79 -59 4 4 40 -9
80 -30 157 -82 355 -128 473 -109 86 14 191 44 260 76 29 13 55 24 58 24 10 0
148 100 204 147 54 46 133 83 176 83 13 0 27 7 30 16 5 14 1 15 -31 10 -21 -4
-47 -10 -58 -13 -20 -5 -20 -5 0 16 16 16 42 24 107 33 73 10 96 9 153 -5 120
-30 195 -97 210 -190 l7 -41 19 22 c30 38 35 104 10 155 -41 84 -179 148 -323
150 -43 0 -78 4 -78 8 0 56 228 22 343 -51 67 -42 100 -98 105 -174 3 -51 0
-67 -20 -96 -35 -53 -79 -70 -176 -70 -104 0 -147 -16 -157 -59 -4 -20 -2 -37
5 -46 33 -39 149 -37 235 5 53 25 120 96 146 153 41 91 13 217 -65 285 -70 61
-184 107 -295 118 l-69 6 58 112 c70 133 93 189 131 319 30 102 53 224 64 338
6 59 9 66 25 62 15 -4 18 -1 13 16 -3 13 11 55 37 110 36 75 42 97 37 131 -7
55 -29 85 -77 106 -25 11 -40 24 -40 36 0 15 9 18 53 18 71 0 169 25 215 54
88 56 132 130 154 253 29 175 -77 348 -236 384 -65 14 -126 0 -155 -38 -25
-31 -26 -51 -5 -81 12 -18 24 -22 52 -20 32 3 37 6 37 28 0 18 -6 26 -22 28
-25 4 -30 21 -11 40 32 32 155 -6 210 -64 15 -16 39 -56 54 -89 34 -73 37
-161 10 -250 l-19 -60 -12 50 c-16 71 -38 107 -111 186 -35 39 -64 75 -64 80
0 6 -4 7 -10 4 -16 -10 -11 -41 10 -60 25 -22 26 -40 3 -30 -67 28 -94 34
-118 25 -14 -5 -25 -17 -25 -25 0 -28 47 -65 82 -65 25 0 29 -3 20 -12 -12
-12 -17 -68 -6 -68 3 0 17 9 31 20 32 25 85 26 106 3 8 -10 21 -39 27 -64 23
-89 -23 -141 -148 -168 -137 -29 -307 13 -448 110 l-47 32 37 12 c74 26 116
90 116 178 0 66 -28 114 -83 141 -31 15 -43 16 -64 7 -31 -14 -29 -54 5 -59
24 -4 29 7 11 25 -21 21 11 25 44 6 45 -26 69 -77 64 -135 -4 -47 -39 -118
-43 -88 -10 68 -17 90 -40 125 -23 36 -25 37 -19 12 6 -28 5 -28 -17 -13 -25
18 -58 21 -58 6 0 -5 9 -19 20 -30 11 -11 17 -26 14 -34 -4 -11 3 -14 27 -13
27 2 33 -2 39 -25 13 -44 -9 -73 -57 -76 -36 -3 -50 3 -95 36 -74 56 -150 96
-240 127 -43 15 -78 31 -78 36 0 18 36 26 97 21 55 -4 75 0 148 28 47 18 83
36 79 39 -3 3 -31 8 -62 11 -55 5 -57 6 -60 35 -6 50 -35 73 -45 35 -7 -26
-93 -68 -108 -53 -8 8 -23 -1 -55 -34 l-43 -46 -108 8 c-140 11 -264 11 -388
1 -115 -10 -153 1 -180 54 -17 33 -30 38 -38 16 -5 -12 -13 -11 -46 6 -23 11
-50 31 -60 44 -22 28 -37 17 -43 -31 -3 -28 -6 -30 -48 -33 -25 -1 -56 -5 -70
-8 -21 -5 -16 -9 35 -30 94 -40 126 -47 191 -41 62 5 94 -4 94 -26 -1 -19
-375 -197 -414 -197 -39 0 -66 26 -66 62 0 33 23 52 55 44 26 -7 32 3 14 21
-8 8 -5 13 10 18 23 7 29 45 8 45 -7 0 -22 -7 -33 -15 -25 -19 -40 -19 -24 0
6 8 9 19 5 25 -10 16 -56 -87 -58 -127 -3 -43 -10 -41 -32 7 -13 28 -16 54
-13 91 5 45 11 58 42 86 44 41 71 44 62 7 -6 -22 -4 -25 16 -22 32 4 34 34 4
53 -24 16 -28 16 -70 -5 -137 -66 -95 -294 58 -322 15 -2 4 -13 -45 -45 -163
-106 -342 -138 -491 -87 -69 23 -93 54 -93 119 0 97 69 145 137 95 25 -18 29
-19 34 -5 4 9 2 27 -4 41 -10 21 -9 24 8 24 32 0 67 21 79 47 14 30 9 39 -24
47 -16 4 -43 -1 -72 -14 -54 -24 -65 -19 -34 14 20 22 26 54 10 59 -3 1 -40
-38 -82 -87 -74 -86 -106 -147 -108 -205 -2 -53 -41 59 -46 133 -6 89 21 169
79 232 71 77 192 112 218 64 9 -17 7 -22 -14 -29 -32 -13 -41 -28 -26 -46 15
-18 60 -19 84 -2 27 19 18 85 -14 109 -39 28 -115 32 -176 8z"/>
<path d="M6405 4500 c-21 -23 -20 -25 69 -135 31 -38 72 -101 91 -140 19 -38
35 -62 35 -52 0 30 45 108 119 206 39 52 71 98 71 102 0 13 -31 39 -46 39 -8
0 -41 -11 -74 -25 -33 -14 -71 -25 -84 -25 -14 0 -51 11 -82 25 -68 30 -76 31
-99 5z"/>
<path d="M6313 4454 c-3 -9 -26 -24 -50 -35 -35 -15 -48 -28 -64 -63 -19 -43
-21 -44 -55 -39 -24 4 -50 -1 -82 -15 -26 -11 -59 -23 -74 -27 -33 -6 -35 -18
-8 -52 11 -14 20 -36 20 -49 0 -36 10 -52 46 -75 33 -20 35 -23 28 -64 -4 -27
-1 -51 7 -66 6 -13 12 -38 11 -56 -1 -32 10 -43 23 -23 3 6 40 10 81 10 68 0
77 2 99 26 30 33 32 54 5 54 -58 0 -128 72 -137 139 -8 57 26 123 75 148 56
27 161 25 201 -5 l31 -23 0 26 c0 40 -24 87 -65 125 -20 19 -41 45 -46 58 -10
26 -37 29 -46 6z"/>
<path d="M6821 4446 c-5 -13 -25 -36 -45 -52 -41 -34 -66 -78 -66 -116 0 -31
7 -34 34 -13 29 22 99 29 155 15 139 -33 163 -194 41 -277 -18 -13 -44 -23
-56 -23 -31 0 -31 -24 1 -55 21 -22 33 -25 99 -25 41 0 78 -4 81 -10 13 -20
24 -9 23 23 -1 18 5 43 11 56 8 14 11 40 7 65 -5 39 -4 42 34 68 33 23 40 33
40 62 0 18 9 45 20 59 27 34 25 46 -7 52 -16 4 -49 16 -75 27 -32 14 -59 19
-86 16 -38 -6 -39 -5 -53 36 -11 33 -23 45 -58 62 -24 12 -48 28 -53 38 -13
23 -37 20 -47 -8z"/>
<path d="M6275 4253 c-64 -17 -95 -78 -76 -151 19 -68 48 -87 151 -94 31 -3
35 -7 43 -42 20 -82 -40 -165 -157 -220 -28 -13 -62 -28 -76 -35 -21 -9 -15
-10 37 -6 120 11 219 58 290 138 84 97 86 243 4 338 -55 65 -136 92 -216 72z
m173 -146 c28 -26 44 -83 33 -122 l-8 -30 -15 36 c-9 19 -30 51 -47 71 -34 39
-37 48 -19 66 12 12 22 9 56 -21z"/>
<path d="M6765 4246 c-37 -16 -90 -67 -113 -110 -26 -48 -24 -188 5 -242 27
-51 87 -106 152 -139 55 -28 159 -55 206 -54 l30 0 -25 11 c-141 63 -201 109
-226 173 -14 38 -15 52 -5 85 12 39 13 40 57 40 96 0 151 57 141 147 -2 24
-13 53 -22 63 -34 38 -141 52 -200 26z m38 -131 c3 -7 -11 -30 -30 -51 -20
-22 -43 -55 -51 -74 l-15 -35 -10 29 c-25 74 79 203 106 131z"/>
<path d="M1975 4188 c-16 -6 -39 -17 -49 -24 -16 -11 -23 -10 -44 6 -31 25
-47 25 -72 0 -29 -29 -25 -47 10 -47 47 0 52 -12 30 -71 -50 -131 -2 -272 92
-272 52 0 88 35 88 85 0 25 -8 44 -25 60 -28 29 -54 31 -97 9 l-31 -16 5 61
c5 65 22 98 72 135 37 28 158 30 200 3 l27 -18 -25 -24 c-31 -28 -48 -68 -39
-91 5 -12 15 -14 53 -9 43 6 51 4 82 -24 35 -31 58 -85 58 -137 -1 -98 -119
-205 -211 -192 -23 4 -29 1 -29 -13 0 -25 38 -49 80 -49 l35 0 -33 -32 c-29
-30 -38 -33 -90 -32 -71 0 -103 17 -186 94 -35 33 -66 60 -70 60 -13 0 -5 -29
25 -83 28 -52 29 -57 11 -57 -35 0 -98 56 -126 111 -28 56 -33 98 -16 130 11
20 36 26 42 9 7 -23 46 21 53 59 11 67 -45 141 -98 127 -16 -4 -26 1 -35 14
-13 22 -61 27 -93 10 -10 -6 -27 -27 -37 -47 -13 -24 -30 -40 -53 -47 -43 -14
-59 -46 -59 -118 0 -62 -13 -75 -32 -32 -11 23 -17 25 -47 20 -81 -13 -156
-113 -148 -198 5 -55 30 -98 57 -98 31 0 37 47 12 91 -12 21 -22 44 -22 52 0
38 94 74 118 45 9 -12 7 -19 -13 -38 -14 -13 -25 -32 -25 -42 0 -22 -2 -22 61
3 85 33 140 14 76 -26 -24 -16 -32 -28 -32 -50 0 -32 3 -33 71 -19 23 4 45 -1
85 -21 29 -15 69 -33 89 -41 31 -11 32 -13 10 -13 -20 -1 -29 -9 -38 -34 -15
-42 -64 -93 -114 -118 l-38 -19 0 -982 0 -982 -32 -26 c-29 -25 -32 -32 -34
-94 -2 -38 -5 -70 -8 -73 -3 -3 -13 9 -23 26 -16 28 -22 31 -48 26 -42 -7
-105 -54 -129 -95 -42 -72 -17 -206 37 -198 31 4 36 59 8 94 -12 15 -21 35
-21 45 0 38 96 73 120 44 11 -13 9 -20 -13 -43 -28 -29 -35 -52 -16 -52 6 0
32 9 59 21 50 22 91 22 97 2 3 -6 -9 -19 -26 -28 -33 -17 -51 -59 -33 -77 8
-8 22 -8 51 2 37 12 43 11 129 -29 96 -44 197 -71 273 -71 67 0 171 35 223 75
39 29 50 33 71 25 14 -5 25 -14 25 -20 0 -21 49 -60 75 -60 25 0 25 0 10 30
l-16 30 86 0 c87 0 94 -4 75 -41 -9 -16 -7 -19 9 -19 33 0 50 11 72 46 26 43
55 44 111 4 50 -37 154 -70 217 -70 76 0 177 27 273 71 82 38 94 41 123 30 41
-15 52 -14 59 4 9 24 -14 63 -45 76 -23 9 -27 14 -18 25 16 19 39 18 99 -6 28
-11 55 -20 60 -20 18 0 10 24 -17 53 -27 28 -27 29 -9 43 35 25 116 -9 116
-50 0 -12 -9 -31 -20 -41 -15 -14 -20 -29 -18 -54 3 -31 7 -36 28 -36 52 0 71
115 32 192 -24 46 -79 89 -127 98 -26 6 -33 2 -48 -24 -26 -44 -38 -39 -31 13
7 50 -8 106 -36 131 -20 18 -20 37 -20 1001 l0 983 -35 16 c-42 21 -112 95
-121 129 -5 21 -13 26 -38 27 -17 0 -24 3 -16 6 8 3 48 21 89 40 72 34 91 36
148 18 47 -15 30 65 -18 86 -23 9 -27 14 -18 25 16 19 45 17 106 -6 63 -24 78
-12 38 30 -38 39 -28 65 21 57 44 -7 84 -32 84 -52 0 -9 -11 -33 -25 -54 -21
-31 -24 -43 -16 -64 25 -66 81 -9 81 83 0 70 -29 124 -87 161 -57 36 -86 37
-107 4 -25 -38 -33 -30 -33 35 0 70 -24 113 -66 118 -15 2 -29 11 -32 23 -4
10 -18 33 -32 49 -30 36 -83 41 -110 11 -9 -11 -22 -17 -30 -14 -20 8 -70 -16
-88 -43 -18 -27 -20 -83 -4 -118 12 -25 39 -43 39 -26 0 6 9 10 20 10 34 0 43
-43 24 -109 -18 -64 -95 -151 -133 -151 -27 0 -27 3 9 67 17 30 28 58 25 64
-4 5 -34 -15 -67 -46 -71 -66 -123 -94 -186 -101 -38 -5 -53 -2 -81 18 -48 33
-51 48 -7 48 23 0 43 7 56 20 29 29 25 40 -14 40 -110 0 -206 91 -206 197 0
103 56 166 142 161 40 -3 43 -1 46 24 2 18 -6 37 -27 61 -17 19 -31 37 -31 40
0 12 85 37 128 37 93 0 172 -80 172 -175 0 -41 -6 -46 -38 -29 -63 33 -112 3
-112 -69 0 -55 30 -87 82 -87 50 0 85 31 103 92 20 68 19 97 -6 170 -19 59
-20 63 -3 75 9 7 28 10 41 7 28 -8 29 5 2 40 -24 31 -48 33 -80 7 -22 -18 -23
-18 -55 1 -80 47 -206 29 -286 -41 -69 -61 -101 -141 -106 -266 -3 -92 -1
-109 32 -213 39 -123 45 -186 21 -232 -15 -28 -19 -30 -79 -30 -62 0 -64 1
-77 33 -21 48 -14 121 21 230 39 122 45 174 31 266 -26 167 -123 269 -265 277
-33 2 -74 -1 -91 -8z m-340 -305 c-15 -104 -3 -198 35 -273 28 -55 98 -129
152 -160 45 -25 48 -29 28 -35 -61 -19 -177 28 -227 94 -37 48 -50 86 -63 192
-16 121 13 229 61 229 20 0 21 -4 14 -47z m1505 12 c22 -44 20 -223 -3 -298
-36 -115 -161 -202 -265 -182 l-37 7 49 25 c66 34 129 101 168 181 32 64 33
71 32 185 -1 114 0 118 20 115 12 -2 28 -16 36 -33z m-310 -25 c0 -5 -4 -10
-10 -10 -5 0 -10 5 -10 10 0 6 5 10 10 10 6 0 10 -4 10 -10z m440 -180 c0 -5
-4 -10 -10 -10 -5 0 -10 5 -10 10 0 6 5 10 10 10 6 0 10 -4 10 -10z m-1050
-284 c11 -14 1 -16 -91 -16 l-104 0 50 29 c28 16 63 43 79 60 l30 31 11 -44
c7 -25 17 -52 25 -60z m419 12 l45 -28 -103 0 -102 0 20 26 c12 16 21 41 21
61 l0 35 37 -33 c21 -17 57 -45 82 -61z m-1169 -2358 c0 -5 -2 -10 -4 -10 -3
0 -8 5 -11 10 -3 6 -1 10 4 10 6 0 11 -4 11 -10z m140 -20 c28 -8 41 -19 57
-52 29 -60 104 -140 157 -169 25 -13 46 -28 46 -33 0 -5 -29 -6 -65 -4 -130
11 -210 90 -238 236 -7 36 -7 36 43 22z m1544 -17 c-34 -154 -110 -230 -239
-241 -36 -2 -65 -1 -65 4 0 5 21 20 46 33 54 29 124 104 154 165 17 36 28 46
58 54 54 14 53 15 46 -15z m-1378 -37 c31 -13 45 -27 63 -63 12 -25 20 -47 17
-50 -2 -2 -23 5 -45 17 -52 26 -134 135 -88 117 6 -3 30 -12 53 -21z m1207
-27 c-25 -38 -108 -98 -119 -86 -3 3 4 24 16 47 15 30 33 47 63 61 63 28 71
24 40 -22z m-978 -70 c67 -29 68 -30 27 -24 -24 3 -60 17 -80 30 -49 33 -31
31 53 -6z m779 20 c-9 -15 -84 -49 -109 -48 -14 0 74 45 113 58 2 1 0 -4 -4
-10z"/>
<path d="M5700 3995 c-19 -14 -37 -30 -41 -36 -4 -8 -16 -6 -38 6 -51 26 -124
30 -175 11 -59 -23 -106 -76 -106 -120 0 -46 8 -49 43 -20 26 22 38 25 77 22
25 -3 74 -17 110 -33 264 -112 293 -119 450 -113 88 4 114 9 162 32 88 42 195
146 150 146 -4 0 -29 -20 -56 -45 -66 -60 -138 -87 -251 -92 -75 -4 -99 -1
-145 16 -30 12 -63 27 -72 35 -17 12 -15 16 17 50 47 50 47 86 1 132 -42 42
-78 44 -126 9z"/>
<path d="M7355 3989 c-49 -43 -49 -87 1 -137 39 -39 39 -39 -36 -74 -62 -29
-176 -35 -260 -14 -67 17 -163 74 -181 108 -11 21 -39 24 -39 4 0 -23 98 -106
158 -134 53 -25 67 -26 197 -27 159 0 180 5 357 87 137 63 200 72 244 34 36
-29 44 -26 44 20 0 44 -47 97 -106 120 -51 19 -124 15 -175 -11 -22 -12 -34
-14 -38 -6 -16 25 -77 61 -103 61 -16 0 -41 -12 -63 -31z"/>
<path d="M6562 3856 c-36 -80 -136 -211 -203 -265 l-41 -34 -117 13 c-139 14
-313 43 -438 71 l-92 20 -3 37 c-5 55 -50 82 -138 82 -53 0 -74 -5 -101 -23
l-34 -23 -3 -96 c-3 -94 -4 -98 -31 -118 -20 -14 -45 -20 -80 -20 l-51 0 2
-1142 3 -1143 54 -3 c29 -2 64 -10 77 -19 22 -14 24 -21 24 -108 0 -126 19
-145 148 -145 94 0 132 26 132 89 l0 34 63 -59 c191 -183 392 -306 602 -370
81 -25 106 -27 250 -28 137 0 171 3 238 22 235 67 437 184 634 367 l71 65 6
-39 c9 -60 35 -76 130 -79 68 -2 86 0 114 17 l32 21 0 99 c0 93 1 100 24 114
13 9 48 17 77 19 l54 3 3 1143 2 1142 -46 0 c-30 0 -59 8 -80 21 l-34 21 0 91
c0 51 -4 97 -8 103 -28 43 -158 59 -222 26 -28 -14 -37 -25 -44 -60 -11 -48
-7 -46 -181 -81 -136 -27 -292 -49 -397 -57 l-87 -7 -55 47 c-72 61 -140 153
-185 248 l-37 76 -32 -72z"/>
<path d="M10542 3913 c-42 -21 -66 -66 -65 -126 l1 -47 -24 25 c-13 14 -31 25
-40 25 -13 0 -71 -29 -94 -47 -11 -9 27 -22 49 -16 17 4 22 2 17 -6 -14 -22 6
-31 23 -10 21 26 52 20 74 -14 l15 -23 -117 0 c-110 1 -116 2 -126 24 -5 12
-15 22 -22 22 -7 0 -16 7 -21 16 -6 10 -12 13 -16 6 -3 -5 -16 -8 -29 -4 -20
5 -21 4 -7 -13 8 -10 31 -25 50 -33 l35 -16 -45 -7 c-25 -4 -73 -8 -107 -8
-53 -1 -64 2 -77 21 -9 12 -16 30 -16 40 0 25 21 34 35 15 7 -10 15 -17 19
-17 13 0 5 23 -11 36 -17 13 -17 13 0 14 10 0 28 -5 40 -12 20 -10 21 -10 8 5
-29 36 -101 5 -101 -43 0 -12 -5 -17 -13 -14 -8 3 -20 -2 -27 -11 -8 -10 -9
-15 -1 -15 6 0 11 -4 11 -10 0 -19 -75 -10 -129 15 -57 27 -97 29 -47 3 38
-20 26 -25 -65 -29 -53 -2 -82 1 -93 10 -9 7 -16 10 -16 7 0 -4 -9 -2 -20 4
-14 7 -20 7 -20 0 0 -5 -9 -10 -20 -10 -11 0 -20 -4 -20 -9 0 -11 35 -21 75
-21 l30 0 -23 -18 c-34 -27 -110 -55 -129 -48 -14 6 -13 10 7 31 20 21 21 25
6 25 -9 0 -21 -10 -25 -22 l-9 -23 -10 25 c-8 18 -11 20 -11 7 -1 -10 10 -29
24 -42 l24 -25 -39 -20 c-64 -33 -170 -21 -170 19 0 27 17 44 37 39 12 -3 25
4 36 19 18 23 18 23 -8 23 -18 0 -24 4 -20 13 4 6 -7 -3 -24 -21 -17 -18 -31
-40 -31 -50 0 -15 -2 -15 -10 -2 -18 28 -11 80 15 105 27 28 87 37 65 10 -10
-12 -10 -15 3 -15 22 0 31 18 17 35 -30 36 -100 1 -120 -60 -15 -45 2 -109 35
-131 13 -8 45 -19 72 -24 26 -4 40 -8 31 -9 -10 0 -25 -12 -33 -25 -14 -22
-14 -27 1 -60 21 -42 34 -46 34 -11 0 19 5 25 23 25 20 1 20 2 5 11 -44 25
-10 59 153 157 60 36 57 25 -13 -45 -46 -47 -68 -77 -70 -97 -2 -24 -9 -31
-35 -38 -18 -5 -45 -24 -62 -45 l-31 -38 0 -937 0 -937 32 -37 c18 -20 47 -43
65 -51 23 -9 33 -20 33 -35 0 -14 25 -48 67 -90 37 -38 63 -68 57 -68 -5 0
-34 15 -64 34 -30 19 -72 44 -92 55 -20 12 -44 31 -53 43 -15 22 -14 24 6 41
l21 17 -21 0 c-14 0 -21 6 -21 19 0 34 -16 31 -34 -5 -19 -42 -14 -67 17 -82
21 -10 21 -11 -6 -11 -53 -2 -97 -28 -113 -68 -29 -69 3 -144 68 -159 33 -7
66 15 54 35 -9 14 -36 14 -36 1 0 -5 5 -10 12 -10 8 0 9 -3 2 -10 -15 -15 -58
3 -78 32 -17 24 -22 93 -7 102 5 3 12 -4 15 -17 3 -12 18 -35 32 -52 16 -18
24 -23 20 -12 -5 15 -2 17 13 12 23 -7 39 13 17 21 -9 3 -16 12 -16 19 0 8 -9
11 -24 8 -18 -4 -26 0 -31 18 -18 54 80 78 161 39 l42 -21 -24 -24 c-13 -13
-24 -31 -24 -39 0 -22 11 -46 21 -46 5 0 4 9 -3 20 -9 14 -10 25 -2 37 24 38
41 39 111 3 l68 -34 -43 -6 c-43 -6 -82 -30 -50 -30 9 0 18 -6 21 -12 3 -10 8
-10 21 1 9 8 19 11 23 7 3 -3 13 0 22 8 12 10 34 11 94 5 44 -4 81 -10 84 -12
3 -3 -8 -12 -24 -21 -42 -23 -8 -19 37 4 49 25 125 37 134 21 4 -6 0 -11 -11
-11 -17 -1 -17 -2 2 -16 11 -8 25 -12 32 -10 8 4 13 -3 13 -18 0 -32 32 -58
66 -54 34 4 54 32 36 50 -10 10 -12 8 -10 -12 3 -22 -1 -25 -32 -27 -32 -2
-33 -2 -12 9 12 6 22 18 22 26 0 12 -4 12 -20 -3 -26 -24 -45 -8 -36 30 10 41
42 49 148 39 l93 -9 -35 -19 c-18 -10 -41 -26 -50 -34 -14 -14 -13 -15 7 -10
12 3 24 1 26 -6 2 -6 21 7 41 29 l38 40 114 0 c100 1 112 -1 101 -15 -32 -44
-71 -53 -82 -20 -4 11 -11 18 -16 14 -5 -3 -7 -13 -4 -23 4 -14 0 -16 -30 -13
-46 5 -44 -9 4 -36 51 -29 75 -28 99 5 l21 28 -6 -40 c-11 -87 49 -155 137
-155 55 0 102 27 119 69 15 34 9 58 -14 68 -20 7 -40 -11 -30 -27 5 -8 10 -8
21 1 27 22 16 -33 -13 -63 -22 -24 -35 -28 -77 -28 -62 0 -91 14 -51 24 35 9
105 56 84 56 -12 0 -15 7 -11 25 5 28 -9 33 -28 10 -7 -8 -17 -12 -23 -8 -6 4
-8 -3 -4 -19 14 -53 -64 -64 -83 -12 -12 30 -3 97 17 137 l14 27 228 0 229 0
16 -40 c36 -90 10 -171 -50 -156 -23 6 -26 11 -20 36 4 22 2 28 -8 24 -7 -3
-16 2 -19 10 -4 9 -13 16 -22 16 -17 0 -21 -25 -5 -35 17 -10 11 -25 -7 -19
-30 9 16 -25 60 -46 44 -20 32 -30 -37 -30 -47 0 -90 26 -101 60 -9 28 3 44
21 29 11 -9 14 -7 14 10 0 17 -5 22 -22 19 -18 -2 -24 -11 -26 -36 -3 -26 4
-40 33 -69 34 -34 37 -35 97 -31 55 4 64 8 94 41 30 33 34 43 34 93 l0 57 21
-27 c25 -32 52 -33 103 -1 32 19 37 25 23 31 -10 3 -26 4 -37 1 -16 -4 -20 0
-20 19 0 29 -16 32 -23 4 -7 -27 -38 -25 -65 3 -12 13 -22 25 -22 28 0 3 48 5
108 6 103 1 142 -7 142 -27 0 -19 42 -52 52 -42 6 6 18 8 27 5 9 -2 3 7 -12
21 -15 14 -35 26 -43 26 -8 0 -14 4 -14 9 0 13 163 25 196 14 17 -6 31 -19 35
-34 4 -13 7 -19 8 -12 1 6 9 9 19 6 10 -2 24 3 31 11 10 12 10 16 2 16 -7 0
-9 5 -5 11 9 15 76 4 125 -21 46 -24 89 -27 46 -4 -16 9 -26 18 -23 21 3 4 41
9 83 13 66 5 83 3 113 -13 22 -12 36 -15 38 -8 2 6 13 11 25 11 35 0 5 20 -44
28 l-44 8 62 32 c34 18 69 32 78 32 20 0 19 -19 -2 -42 -14 -16 -14 -18 0 -18
9 0 19 10 22 21 6 17 9 19 16 8 6 -10 9 -10 9 -2 0 7 -10 21 -22 32 l-21 21
44 20 c83 37 159 23 159 -31 0 -26 -3 -30 -22 -27 -23 3 -58 -23 -58 -43 0 -7
10 -9 26 -5 19 5 24 4 18 -6 -5 -9 -2 -9 10 1 9 8 25 30 35 49 l18 35 7 -27
c10 -42 -11 -94 -45 -112 -33 -17 -51 -11 -42 13 4 11 2 14 -8 11 -8 -3 -15
-12 -17 -21 -5 -24 40 -32 77 -13 39 21 51 44 51 100 0 60 -29 94 -95 111 -46
11 -48 13 -27 24 12 6 22 19 22 28 0 25 -23 83 -33 83 -4 0 -1 10 7 22 14 20
16 127 16 957 l0 934 -26 35 c-15 19 -42 40 -60 48 -24 10 -34 21 -34 37 0 15
-24 47 -70 92 -38 38 -68 70 -66 72 3 3 45 -21 170 -98 43 -27 59 -64 32 -75
-9 -3 -14 -10 -11 -15 3 -4 13 -5 21 -2 10 4 15 1 14 -8 -7 -44 11 -52 28 -14
20 44 15 73 -15 89 l-28 15 33 1 c47 0 97 26 111 56 20 45 14 112 -13 139 -32
32 -73 42 -93 22 -8 -8 -12 -20 -9 -26 11 -17 29 -13 22 4 -8 23 40 19 64 -5
25 -25 34 -62 25 -97 l-8 -28 -12 30 c-14 33 -55 75 -55 57 0 -7 -9 -12 -20
-12 -11 0 -20 -2 -20 -5 0 -13 37 -40 52 -37 9 2 22 -6 28 -17 28 -54 -80 -82
-160 -41 l-39 20 24 25 c29 28 31 42 9 73 -15 22 -44 30 -44 12 0 -5 6 -7 14
-4 18 7 38 -29 29 -52 -6 -15 -7 -15 -14 4 -5 12 -15 22 -23 22 -10 0 -13 -6
-10 -15 4 -8 10 -15 15 -15 5 0 9 -7 9 -15 0 -21 -16 -19 -87 11 -70 30 -80
44 -30 44 18 0 42 7 53 15 19 14 19 14 -3 15 -12 0 -23 4 -25 8 -1 5 -19 2
-38 -6 -37 -16 -178 -18 -194 -2 -4 4 5 15 20 24 46 25 11 18 -48 -9 -53 -25
-128 -34 -128 -15 0 6 6 10 13 10 7 0 4 7 -7 15 -13 10 -23 11 -31 5 -8 -7
-12 -1 -12 20 0 51 -65 81 -94 43 -11 -15 -11 -16 1 -5 8 6 25 12 39 12 l25 0
-24 -22 c-15 -14 -19 -23 -11 -26 7 -2 18 4 25 13 11 15 13 15 25 1 10 -12 10
-20 -1 -43 -10 -21 -21 -29 -48 -31 -52 -5 -180 8 -180 19 0 5 6 9 14 9 8 0
28 12 43 26 15 14 21 23 12 21 -9 -3 -21 -1 -27 5 -8 8 -13 7 -18 -5 -3 -9
-11 -17 -18 -17 -6 0 -16 -10 -21 -22 -10 -22 -16 -23 -127 -24 -110 0 -116 1
-107 18 6 11 22 24 36 31 22 10 27 8 42 -12 12 -16 21 -20 25 -12 4 6 4 16 0
23 -5 8 0 9 16 5 13 -3 30 -1 37 5 11 9 6 16 -24 34 -21 13 -47 24 -59 24 -21
0 -47 -22 -57 -50 -3 -8 -6 13 -6 48 -1 56 -4 66 -34 98 -26 29 -42 37 -80 41
-55 6 -99 -9 -127 -45 -24 -29 -26 -80 -5 -88 23 -9 45 3 39 21 -5 11 -10 13
-19 5 -21 -17 -28 6 -11 38 17 34 54 52 104 52 49 0 73 -15 41 -25 -29 -10
-89 -48 -89 -57 0 -4 8 -5 18 -1 14 5 15 3 5 -8 -7 -7 -13 -19 -13 -26 0 -18
29 -17 36 1 3 8 12 12 21 9 12 -5 14 -1 8 16 -14 45 37 68 70 31 14 -15 16
-31 13 -72 -3 -29 -10 -65 -16 -80 l-12 -28 -229 0 c-259 0 -241 -6 -260 83
-18 80 18 135 70 107 16 -9 19 -18 14 -37 -4 -17 -2 -22 5 -18 6 4 17 -1 24
-11 17 -23 40 -10 26 16 -14 27 -12 34 5 20 8 -7 15 -9 15 -4 0 11 -57 49 -89
59 -34 10 -8 25 46 25 51 0 103 -38 103 -77 0 -21 -3 -23 -14 -14 -20 17 -33
-7 -14 -26 13 -13 17 -12 32 2 20 20 20 38 1 75 -29 57 -115 77 -183 43z
m-542 -243 c0 -5 -7 -10 -15 -10 -8 0 -15 5 -15 10 0 6 7 10 15 10 8 0 15 -4
15 -10z m1550 0 c0 -5 -9 -10 -21 -10 -11 0 -17 5 -14 10 3 6 13 10 21 10 8 0
14 -4 14 -10z m567 -2320 c-18 -5 -18 -7 -3 -19 23 -20 20 -38 -11 -58 -16 -9
-61 -38 -102 -65 -41 -26 -76 -46 -78 -44 -2 2 26 32 62 66 50 49 65 70 65 92
0 17 5 28 14 28 8 0 24 9 37 19 22 18 25 18 30 3 4 -12 0 -19 -14 -22z m-2120
-266 c-3 -3 -12 -4 -19 -1 -8 3 -5 6 6 6 11 1 17 -2 13 -5z m1550 0 c-3 -3
-12 -4 -19 -1 -8 3 -5 6 6 6 11 1 17 -2 13 -5z"/>
<path d="M10080 3730 c0 -5 5 -10 10 -10 6 0 10 5 10 10 0 6 -4 10 -10 10 -5
0 -10 -4 -10 -10z"/>
<path d="M11420 3729 c0 -5 5 -7 10 -4 6 3 10 8 10 11 0 2 -4 4 -10 4 -5 0
-10 -5 -10 -11z"/>
<path d="M9459 3653 c-13 -16 -12 -17 3 -5 9 8 23 10 29 6 8 -4 9 -3 5 4 -10
17 -21 15 -37 -5z"/>
<path d="M5191 2014 c0 -11 3 -14 6 -6 3 7 2 16 -1 19 -3 4 -6 -2 -5 -13z"/>
<path d="M9470 1150 c0 -12 28 -25 36 -17 3 3 -4 10 -15 17 -15 7 -21 7 -21 0z"/>
<path d="M12051 1107 c-13 -21 -12 -21 5 -5 10 10 16 20 13 22 -3 3 -11 -5
-18 -17z"/>
<path d="M9480 1099 c0 -5 5 -7 10 -4 6 3 10 8 10 11 0 2 -4 4 -10 4 -5 0 -10
-5 -10 -11z"/>
<path d="M11420 1030 c0 -5 5 -10 11 -10 5 0 7 5 4 10 -3 6 -8 10 -11 10 -2 0
-4 -4 -4 -10z"/>
<path d="M11450 1035 c0 -2 10 -13 22 -25 l22 -20 -25 0 c-14 0 -30 5 -37 12
-8 8 -12 8 -12 1 0 -12 23 -23 50 -23 21 0 50 26 49 43 0 9 -2 8 -6 0 -7 -18
-30 -16 -37 2 -5 13 -26 22 -26 10z"/>
</g>
</svg>
