<?xml version="1.0" standalone="no"?>
<!DOCTYPE svg PUBLIC "-//W3C//DTD SVG 20010904//EN"
 "http://www.w3.org/TR/2001/REC-SVG-20010904/DTD/svg10.dtd">
<svg version="1.0" xmlns="http://www.w3.org/2000/svg"
 width="1280.000000pt" height="1189.000000pt" viewBox="0 0 1280.000000 1189.000000"
 preserveAspectRatio="xMidYMid meet">
<metadata>
Created by potrace 1.15, written by Peter Selinger 2001-2017
</metadata>
<g transform="translate(0.000000,1189.000000) scale(0.100000,-0.100000)"
fill="#000000" stroke="none">
<path d="M3315 11869 c-528 -60 -902 -163 -1320 -363 -510 -245 -920 -578
-1245 -1011 -126 -169 -205 -294 -301 -479 -229 -443 -354 -877 -421 -1471
-17 -152 -17 -751 0 -925 98 -982 398 -1901 948 -2906 309 -567 619 -986 1148
-1553 772 -828 1995 -1794 3316 -2618 544 -340 837 -511 896 -523 60 -13 128
-7 181 15 66 28 866 519 1203 739 1575 1027 2810 2103 3571 3111 209 278 344
487 518 804 565 1028 868 1955 963 2946 17 182 17 728 0 895 -79 760 -297
1372 -678 1906 -385 539 -949 962 -1604 1204 -483 178 -910 248 -1449 237
-351 -8 -545 -32 -854 -108 -624 -154 -1178 -445 -1675 -882 l-113 -99 -77 70
c-279 251 -634 489 -960 644 -386 182 -766 293 -1217 354 -131 18 -709 27
-830 13z m748 -645 c620 -76 1185 -314 1682 -711 61 -48 196 -171 300 -274
215 -211 238 -224 360 -223 114 1 141 18 359 232 215 211 337 312 541 447 224
149 423 251 668 344 966 366 2100 242 2927 -320 163 -111 269 -197 396 -325
492 -492 777 -1157 844 -1967 16 -192 8 -673 -14 -857 -90 -734 -293 -1406
-646 -2135 -117 -242 -303 -582 -417 -763 -569 -902 -1559 -1863 -2939 -2853
-238 -171 -755 -518 -1019 -685 -292 -184 -691 -424 -705 -424 -24 0 -618 364
-984 603 -1677 1096 -2925 2220 -3611 3252 -244 366 -544 950 -722 1404 -235
598 -373 1170 -423 1746 -22 257 -13 686 21 925 158 1134 760 1952 1734 2358
343 143 635 209 1085 246 89 8 443 -5 563 -20z"/>
<path d="M3405 10920 c-746 -76 -1392 -395 -1811 -894 -808 -964 -841 -2559
-88 -4243 122 -274 345 -698 484 -920 620 -993 1830 -2110 3454 -3187 391
-259 931 -596 955 -596 26 0 572 341 962 600 1650 1098 2858 2218 3466 3215
502 822 850 1747 962 2555 33 241 44 394 44 640 0 258 -11 398 -49 625 -126
757 -488 1353 -1055 1737 -684 464 -1594 600 -2421 362 -376 -108 -720 -285
-1038 -534 -139 -109 -433 -406 -544 -550 -86 -111 -248 -350 -296 -437 -13
-24 -27 -43 -30 -43 -4 0 -34 46 -67 103 -227 384 -561 753 -913 1008 -398
290 -863 476 -1361 544 -136 19 -527 27 -654 15z"/>
</g>
</svg>
