<?xml version="1.0" encoding="UTF-8"?><svg id="Layer_2" xmlns="http://www.w3.org/2000/svg" viewBox="0 0 373 373"><defs><style>.cls-1{fill:#d1d3d4;stroke:#d1d3d4;}.cls-1,.cls-2{stroke-miterlimit:10;stroke-width:2px;}.cls-2{fill:#3b97d3;stroke:#3b97d3;}</style></defs><polygon class="cls-1" points="221.37 200.68 284.88 185.33 221.55 170.02 229.09 145.8 203.43 152.87 187.32 92.31 171.26 152.69 145.86 145.5 153.28 169.97 89.76 185.33 153.09 200.64 145.55 224.86 171.22 217.79 187.32 278.35 203.38 217.96 228.78 225.16 221.37 200.68"/><path class="cls-2" d="M293.28,33.52C217.92-18.9,112.53-7.05,49.24,62.57l-22.37,1.53-24.25,6.19,29.33,16.95-.54,29.63,4.04,18.43-9.29,28.62-3.37,18.28,26.39,3.13,14.69-13.98c14.19-13.5,31.13-28.37,49.27-35.74l39.23-10.53-15.58-6.87-19.25-8.49,11.24-5.38-22.48-.98,8.36-44.48-.98,36.81,36.98,3.26-17.05,9.16,10.73,4.76,29.7-5.92,13.54-48.36,21.94,82.5,34.97-9.63-10.28,32.99,86.28,20.86-86.53,20.92,10.1,33.34-34.61-9.8-21.88,82.26-16.58-62.33-6.66-3.18-33.19-7.49-.48,.13,.07-.22-6.8-1.53,24.76,24.11-17.94-7.54c-17.82-7.49-37-11.23-56.33-10.99l-22.82,.29,8.47,5.21,1.49,.92c11.31,6.98,19.78,17.73,23.92,30.36l-6.46-.67c-10.08-1.05-19.74-4.63-28.08-10.4h0c-8.45-5.87-15.54-13.47-20.82-22.3l-5.56-9.3,.26,4.75c1.06,19.62,7.26,38.61,17.99,55.07h0c3.77,5.79,8.51,10.89,14.01,15.08l11.57,8.82-12.65,1.95,11.61,7.03c12.92,7.83,26.6,14.31,40.84,19.37,13.99,4.96,28.83,7.12,43.65,6.42l19.01-.89-1.97,1.16c-9.74,5.73-19.99,10.56-30.61,14.43,13.34,3.47,27.23,4.35,40.9,2.59h.07c18.87-2.44,36.82-9.59,52.2-20.79l30.41-22.37-5.52,11.05h0c-6.14,6.5-11.41,13.78-15.68,21.64l-6.17,11.35,11.45-8.49c3.9-2.89,8.05-5.41,12.31-7.73,8.57-4.65,17.39-12.48,23.58-18.92h0l7.56-9.77,6.77-10.21,12.16-22.81-5.08,16.31c-2.83,9.08-4.67,18.44-5.48,27.92l-.08,.95s9.35-17.89,21.18-34.1l.78-1.44c2.66-4.92,7.2-8.76,9.21-13.98,1.77-4.59,4.57-10.19,5.86-13.16l12.6-29.2-2.33,9.66c-3.14,13.03-4.3,26.46-3.45,39.84l.24,3.71,5.34-19.68c.37-.51,2.87-8.49,3.07-9.09,4.84-14.02,8.8-18.18,12-27.7,26.32-78.22-1.65-165.57-68.94-212.38Z"/></svg>