<svg xmlns="http://www.w3.org/2000/svg" xmlns:xlink="http://www.w3.org/1999/xlink"
  style="margin:auto;background:#c1dffd;display:block;z-index:1;position:relative" width="1209"
  height="744" preserveAspectRatio="xMidYMid" viewBox="0 0 1209 744">
  <g transform="translate(604.5,372) scale(1,1) translate(-604.5,-372)">
    <path
      d="M-100 432.48C-76.38 439.09 -76.32 433.39 -54.55 433.39S-30.55 438.63 -9.1 438.63S15.43 434.23 36.35 434.23S59.12 432.62 81.81 432.62S105.57 449.28 127.26 449.28S151.77 433.03 172.71 433.03S195.75 442.69 218.16 442.69S242.23 434.78 263.61 434.78S287.28 441.42 309.06 441.42S331.83 435.93 354.52 435.93S378.22 441.98 399.97 441.98S423.66 441.88 445.42 441.88S469.72 445.66 490.87 445.66S515.15 449.33 536.32 449.33S559.19 446.89 581.77 446.89S605.48 441.44 627.23 441.44S650.81 439.95 672.68 439.95S696.43 438.22 718.13 438.22S741.79 440.73 763.58 440.73S787.7 438.61 809.03 438.61S832.36 441.81 854.48 441.81S878.79 445.05 899.94 445.05S924.16 438.56 945.39 438.56S969.21 445.19 990.84 445.19S1014.23 435.5 1036.29 435.5S1060.72 446.45 1081.74 446.45S1106.32 449.84 1127.19 449.84S1150.63 433.67 1172.65 433.67S1197.18 436.25 1218.1 436.25S1241.13 446.11 1263.55 446.11S1287.91 440.86 1309 440.86S1332.63 437.54 1354.45 437.54L1309 744 L-100 744 Z"
      fill="#86b2d1" stroke-width="0">
      <animate attributeName="d" dur="500s" repeatCount="indefinite"
        values="M-100 432.48C-76.38 439.09 -76.32 433.39 -54.55 433.39S-30.55 438.63 -9.1 438.63S15.43 434.23 36.35 434.23S59.12 432.62 81.81 432.62S105.57 449.28 127.26 449.28S151.77 433.03 172.71 433.03S195.75 442.69 218.16 442.69S242.23 434.78 263.61 434.78S287.28 441.42 309.06 441.42S331.83 435.93 354.52 435.93S378.22 441.98 399.97 441.98S423.66 441.88 445.42 441.88S469.72 445.66 490.87 445.66S515.15 449.33 536.32 449.33S559.19 446.89 581.77 446.89S605.48 441.44 627.23 441.44S650.81 439.95 672.68 439.95S696.43 438.22 718.13 438.22S741.79 440.73 763.58 440.73S787.7 438.61 809.03 438.61S832.36 441.81 854.48 441.81S878.79 445.05 899.94 445.05S924.16 438.56 945.39 438.56S969.21 445.19 990.84 445.19S1014.23 435.5 1036.29 435.5S1060.72 446.45 1081.74 446.45S1106.32 449.84 1127.19 449.84S1150.63 433.67 1172.65 433.67S1197.18 436.25 1218.1 436.25S1241.13 446.11 1263.55 446.11S1287.91 440.86 1309 440.86S1332.63 437.54 1354.45 437.54L1309 744 L-100 744 Z;M-100 433.7C-77.16 441.39 -75.47 435.59 -54.55 435.59S-30.37 449.39 -9.1 449.39S15.27 438.63 36.35 438.63S59.26 438.97 81.81 438.97S104.98 439.71 127.26 439.71S150.16 433.75 172.71 433.75S196.73 435.24 218.16 435.24S242.28 443.61 263.61 443.61S286.87 447.06 309.06 447.06S332.6 435.77 354.52 435.77S378.56 439.86 399.97 439.86S423.61 440.91 445.42 440.91S468.53 442.86 490.87 442.86S514.64 446.97 536.32 446.97S560.66 439.17 581.77 439.17S605.62 436.06 627.23 436.06S651.43 443.96 672.68 443.96S696.62 439.73 718.13 439.73S741.34 436.63 763.58 436.63S786.45 433 809.03 433S833.52 435.03 854.48 435.03S878.42 441.14 899.94 441.14S924.44 435.42 945.39 435.42S968.26 432.05 990.84 432.05S1015.07 442.17 1036.29 442.17S1059.53 438.44 1081.74 438.44S1105.48 447.32 1127.19 447.32S1151.33 438.86 1172.65 438.86S1195.95 449.96 1218.1 449.96S1242.45 449.2 1263.55 449.2S1287.7 433.3 1309 433.3S1332.27 436.78 1354.45 436.78L1309 744 L-100 744 Z;M-100 432.48C-76.38 439.09 -76.32 433.39 -54.55 433.39S-30.55 438.63 -9.1 438.63S15.43 434.23 36.35 434.23S59.12 432.62 81.81 432.62S105.57 449.28 127.26 449.28S151.77 433.03 172.71 433.03S195.75 442.69 218.16 442.69S242.23 434.78 263.61 434.78S287.28 441.42 309.06 441.42S331.83 435.93 354.52 435.93S378.22 441.98 399.97 441.98S423.66 441.88 445.42 441.88S469.72 445.66 490.87 445.66S515.15 449.33 536.32 449.33S559.19 446.89 581.77 446.89S605.48 441.44 627.23 441.44S650.81 439.95 672.68 439.95S696.43 438.22 718.13 438.22S741.79 440.73 763.58 440.73S787.7 438.61 809.03 438.61S832.36 441.81 854.48 441.81S878.79 445.05 899.94 445.05S924.16 438.56 945.39 438.56S969.21 445.19 990.84 445.19S1014.23 435.5 1036.29 435.5S1060.72 446.45 1081.74 446.45S1106.32 449.84 1127.19 449.84S1150.63 433.67 1172.65 433.67S1197.18 436.25 1218.1 436.25S1241.13 446.11 1263.55 446.11S1287.91 440.86 1309 440.86S1332.63 437.54 1354.45 437.54L1309 744 L-100 744 Z"></animate>
      <animateTransform attributeName="transform" type="translate" dur="500s" begin="0s"
        repeatCount="indefinite" values="0;10;0" calcMode="spline"
        keySplines="0.3 0 0.7 1;0.3 0 0.7 1"></animateTransform>
    </path>
    <path
      d="M-100 466.34C-75.49 466.96 -76.4 458.28 -53.34 458.28S-29.77 458.15 -6.69 458.15S16.71 465.16 39.97 465.16S64 467.55 86.62 467.55S110.53 456.82 133.28 456.82S156.92 456.87 179.93 456.87S204.12 461.81 226.59 461.81S250.22 458.64 273.25 458.64S298.33 462.94 319.9 462.94S344.83 450.94 366.56 450.94S390.45 468.53 413.21 468.53S437.63 455.7 459.87 455.7S484.3 458.57 506.52 458.57S531.57 451.87 553.18 451.87S577 465.71 599.83 465.71S624.64 450.57 646.49 450.57S670.07 466.82 693.15 466.82S716.95 453.62 739.8 453.62S764.7 471.87 786.46 471.87S810.73 457.47 833.11 457.47S857.97 469.13 879.77 469.13S904.55 467.82 926.42 467.82S950.86 459.99 973.08 459.99S997.13 464.51 1019.74 464.51S1043.81 461.71 1066.39 461.71S1089.96 459.97 1113.05 459.97S1136.44 466.57 1159.7 466.57S1183.86 452.09 1206.36 452.09S1231.15 460.23 1253.01 460.23S1278.04 450.62 1299.67 450.62S1323.28 464.04 1346.32 464.04L1309 744 L-100 744 Z"
      fill="#7ba5c3" stroke-width="0">
      <animate attributeName="d" dur="450s" repeatCount="indefinite"
        values="M-100 466.34C-75.49 466.96 -76.4 458.28 -53.34 458.28S-29.77 458.15 -6.69 458.15S16.71 465.16 39.97 465.16S64 467.55 86.62 467.55S110.53 456.82 133.28 456.82S156.92 456.87 179.93 456.87S204.12 461.81 226.59 461.81S250.22 458.64 273.25 458.64S298.33 462.94 319.9 462.94S344.83 450.94 366.56 450.94S390.45 468.53 413.21 468.53S437.63 455.7 459.87 455.7S484.3 458.57 506.52 458.57S531.57 451.87 553.18 451.87S577 465.71 599.83 465.71S624.64 450.57 646.49 450.57S670.07 466.82 693.15 466.82S716.95 453.62 739.8 453.62S764.7 471.87 786.46 471.87S810.73 457.47 833.11 457.47S857.97 469.13 879.77 469.13S904.55 467.82 926.42 467.82S950.86 459.99 973.08 459.99S997.13 464.51 1019.74 464.51S1043.81 461.71 1066.39 461.71S1089.96 459.97 1113.05 459.97S1136.44 466.57 1159.7 466.57S1183.86 452.09 1206.36 452.09S1231.15 460.23 1253.01 460.23S1278.04 450.62 1299.67 450.62S1323.28 464.04 1346.32 464.04L1309 744 L-100 744 Z;M-100 456.98C-76.67 464.81 -75.54 467.23 -53.34 467.23S-29.91 451.09 -6.69 451.09S17.77 462.21 39.97 462.21S63.85 468.36 86.62 468.36S111.43 450.29 133.28 450.29S157.91 452.71 179.93 452.71S205.11 467.85 226.59 467.85S251.5 458.4 273.25 458.4S297.83 472.43 319.9 472.43S344.56 461.39 366.56 461.39S390.5 458.1 413.21 458.1S436.64 465.69 459.87 465.69S483.33 459.4 506.52 459.4S530.4 463.39 553.18 463.39S577.42 463.16 599.83 463.16S624.64 456.32 646.49 456.32S671.28 471.76 693.15 471.76S716.83 468.23 739.8 468.23S764.96 463.93 786.46 463.93S811.12 451.11 833.11 451.11S857.63 458.2 879.77 458.2S904.45 458.93 926.42 458.93S950.04 454.02 973.08 454.02S997.52 463.65 1019.74 463.65S1044.27 467.45 1066.39 467.45S1090 463.77 1113.05 463.77S1136.63 461.41 1159.7 461.41S1183.28 458.49 1206.36 458.49S1230.14 457.66 1253.01 457.66S1276.38 459.83 1299.67 459.83S1323.12 462.1 1346.32 462.1L1309 744 L-100 744 Z;M-100 466.34C-75.49 466.96 -76.4 458.28 -53.34 458.28S-29.77 458.15 -6.69 458.15S16.71 465.16 39.97 465.16S64 467.55 86.62 467.55S110.53 456.82 133.28 456.82S156.92 456.87 179.93 456.87S204.12 461.81 226.59 461.81S250.22 458.64 273.25 458.64S298.33 462.94 319.9 462.94S344.83 450.94 366.56 450.94S390.45 468.53 413.21 468.53S437.63 455.7 459.87 455.7S484.3 458.57 506.52 458.57S531.57 451.87 553.18 451.87S577 465.71 599.83 465.71S624.64 450.57 646.49 450.57S670.07 466.82 693.15 466.82S716.95 453.62 739.8 453.62S764.7 471.87 786.46 471.87S810.73 457.47 833.11 457.47S857.97 469.13 879.77 469.13S904.55 467.82 926.42 467.82S950.86 459.99 973.08 459.99S997.13 464.51 1019.74 464.51S1043.81 461.71 1066.39 461.71S1089.96 459.97 1113.05 459.97S1136.44 466.57 1159.7 466.57S1183.86 452.09 1206.36 452.09S1231.15 460.23 1253.01 460.23S1278.04 450.62 1299.67 450.62S1323.28 464.04 1346.32 464.04L1309 744 L-100 744 Z"></animate>
      <animateTransform attributeName="transform" type="translate" dur="450s" begin="-45s"
        repeatCount="indefinite" values="0;10;0" calcMode="spline"
        keySplines="0.3 0 0.7 1;0.3 0 0.7 1"></animateTransform>
    </path>
    <path
      d="M-100 474.38C-74.99 473.97 -75.08 490.11 -52.07 490.11S-27.62 482.88 -4.15 482.88S21.5 477.66 43.78 477.66S68.61 486.01 91.7 486.01S116.38 480.33 139.63 480.33S164.23 489.12 187.55 489.12S212.74 482.16 235.48 482.16S260.14 476.11 283.4 476.11S308.62 483.84 331.33 483.84S356.94 481.77 379.25 481.77S404.79 490.69 427.18 490.69S452.24 487.31 475.1 487.31S500.34 483.86 523.03 483.86S548.42 485.33 570.95 485.33S596.14 486.07 618.88 486.07S642.89 489.38 666.8 489.38S692.09 493.75 714.73 493.75S739.63 470.78 762.65 470.78S788.41 493.22 810.58 493.22S836.36 469.02 858.5 469.02S883.37 491.21 906.43 491.21S931.18 485.18 954.35 485.18S980.01 469.03 1002.28 469.03S1027.63 471.92 1050.2 471.92S1074.89 478.12 1098.13 478.12S1123.8 482.96 1146.05 482.96S1171.12 483.61 1193.98 483.61S1219.35 482.86 1241.9 482.86S1267.34 474.45 1289.83 474.45S1314.34 485.55 1337.76 485.55L1309 744 L-100 744 Z"
      fill="#6f98b6" stroke-width="0">
      <animate attributeName="d" dur="400s" repeatCount="indefinite"
        values="M-100 474.38C-74.99 473.97 -75.08 490.11 -52.07 490.11S-27.62 482.88 -4.15 482.88S21.5 477.66 43.78 477.66S68.61 486.01 91.7 486.01S116.38 480.33 139.63 480.33S164.23 489.12 187.55 489.12S212.74 482.16 235.48 482.16S260.14 476.11 283.4 476.11S308.62 483.84 331.33 483.84S356.94 481.77 379.25 481.77S404.79 490.69 427.18 490.69S452.24 487.31 475.1 487.31S500.34 483.86 523.03 483.86S548.42 485.33 570.95 485.33S596.14 486.07 618.88 486.07S642.89 489.38 666.8 489.38S692.09 493.75 714.73 493.75S739.63 470.78 762.65 470.78S788.41 493.22 810.58 493.22S836.36 469.02 858.5 469.02S883.37 491.21 906.43 491.21S931.18 485.18 954.35 485.18S980.01 469.03 1002.28 469.03S1027.63 471.92 1050.2 471.92S1074.89 478.12 1098.13 478.12S1123.8 482.96 1146.05 482.96S1171.12 483.61 1193.98 483.61S1219.35 482.86 1241.9 482.86S1267.34 474.45 1289.83 474.45S1314.34 485.55 1337.76 485.55L1309 744 L-100 744 Z;M-100 469.62C-75.71 471.23 -75.78 474.04 -52.07 474.04S-27.83 477.55 -4.15 477.55S20.75 482.78 43.78 482.78S68.58 483.94 91.7 483.94S116.11 488.62 139.63 488.62S164.23 475.84 187.55 475.84S212.38 476.92 235.48 476.92S259.59 485.51 283.4 485.51S308.25 478.5 331.33 478.5S356.41 488.78 379.25 488.78S404.97 478.25 427.18 478.25S451.33 483.66 475.1 483.66S499.92 487.06 523.03 487.06S547.29 481.04 570.95 481.04S596.34 477.34 618.88 477.34S644.67 476.59 666.8 476.59S691.16 481.6 714.73 481.6S738.83 480.19 762.65 480.19S787.57 481.94 810.58 481.94S835.15 470.83 858.5 470.83S882.53 493.86 906.43 493.86S931.08 481.08 954.35 481.08S978.61 483.68 1002.28 483.68S1026.66 471.99 1050.2 471.99S1074.56 494.29 1098.13 494.29S1122.1 479.18 1146.05 479.18S1171.36 482.53 1193.98 482.53S1218.18 479.94 1241.9 479.94S1267.59 484.96 1289.83 484.96S1314.79 476.74 1337.76 476.74L1309 744 L-100 744 Z;M-100 474.38C-74.99 473.97 -75.08 490.11 -52.07 490.11S-27.62 482.88 -4.15 482.88S21.5 477.66 43.78 477.66S68.61 486.01 91.7 486.01S116.38 480.33 139.63 480.33S164.23 489.12 187.55 489.12S212.74 482.16 235.48 482.16S260.14 476.11 283.4 476.11S308.62 483.84 331.33 483.84S356.94 481.77 379.25 481.77S404.79 490.69 427.18 490.69S452.24 487.31 475.1 487.31S500.34 483.86 523.03 483.86S548.42 485.33 570.95 485.33S596.14 486.07 618.88 486.07S642.89 489.38 666.8 489.38S692.09 493.75 714.73 493.75S739.63 470.78 762.65 470.78S788.41 493.22 810.58 493.22S836.36 469.02 858.5 469.02S883.37 491.21 906.43 491.21S931.18 485.18 954.35 485.18S980.01 469.03 1002.28 469.03S1027.63 471.92 1050.2 471.92S1074.89 478.12 1098.13 478.12S1123.8 482.96 1146.05 482.96S1171.12 483.61 1193.98 483.61S1219.35 482.86 1241.9 482.86S1267.34 474.45 1289.83 474.45S1314.34 485.55 1337.76 485.55L1309 744 L-100 744 Z"></animate>
      <animateTransform attributeName="transform" type="translate" dur="400s" begin="-80s"
        repeatCount="indefinite" values="0;10;0" calcMode="spline"
        keySplines="0.3 0 0.7 1;0.3 0 0.7 1"></animateTransform>
    </path>
    <path
      d="M-100 498.36C-73.51 501.88 -74.53 511.43 -50.73 511.43S-24.56 503.04 -1.47 503.04S23.44 511 47.8 511S73.35 498.37 97.06 498.37S123 516.08 146.33 516.08S172.3 502.71 195.59 502.71S221.57 507.35 244.86 507.35S271.34 502.06 294.13 502.06S319.87 505.33 343.39 505.33S368.16 497.29 392.66 497.29S417.39 515.63 441.92 515.63S468.15 491.63 491.19 491.63S516.83 504.17 540.45 504.17S566.11 512.86 589.72 512.86S615.35 513.11 638.99 513.11S665.06 494.16 688.25 494.16S714.51 506.23 737.52 506.23S762.22 502.86 786.78 502.86S811.51 500.62 836.05 500.62S862.19 494.27 885.31 494.27S911.02 504.14 934.58 504.14S959.43 490.49 983.85 490.49S1009.09 508.92 1033.11 508.92S1058.25 500.03 1082.38 500.03S1108.02 491.51 1131.64 491.51S1156.53 494.54 1180.91 494.54S1206.48 511.15 1230.17 511.15S1256.66 489.93 1279.44 489.93S1304.97 516.46 1328.71 516.46L1309 744 L-100 744 Z"
      fill="#648ba8" stroke-width="0">
      <animate attributeName="d" dur="350s" repeatCount="indefinite"
        values="M-100 498.36C-73.51 501.88 -74.53 511.43 -50.73 511.43S-24.56 503.04 -1.47 503.04S23.44 511 47.8 511S73.35 498.37 97.06 498.37S123 516.08 146.33 516.08S172.3 502.71 195.59 502.71S221.57 507.35 244.86 507.35S271.34 502.06 294.13 502.06S319.87 505.33 343.39 505.33S368.16 497.29 392.66 497.29S417.39 515.63 441.92 515.63S468.15 491.63 491.19 491.63S516.83 504.17 540.45 504.17S566.11 512.86 589.72 512.86S615.35 513.11 638.99 513.11S665.06 494.16 688.25 494.16S714.51 506.23 737.52 506.23S762.22 502.86 786.78 502.86S811.51 500.62 836.05 500.62S862.19 494.27 885.31 494.27S911.02 504.14 934.58 504.14S959.43 490.49 983.85 490.49S1009.09 508.92 1033.11 508.92S1058.25 500.03 1082.38 500.03S1108.02 491.51 1131.64 491.51S1156.53 494.54 1180.91 494.54S1206.48 511.15 1230.17 511.15S1256.66 489.93 1279.44 489.93S1304.97 516.46 1328.71 516.46L1309 744 L-100 744 Z;M-100 509.62C-74.17 504.06 -74.72 492.57 -50.73 492.57S-25.82 500.49 -1.47 500.49S23.52 512.43 47.8 512.43S73.25 500.73 97.06 500.73S123.3 499.68 146.33 499.68S172.81 494.43 195.59 494.43S221.15 507.5 244.86 507.5S269.75 502.48 294.13 502.48S319.55 513.34 343.39 513.34S368.33 495.6 392.66 495.6S417.99 508.14 441.92 508.14S467.97 488.61 491.19 488.61S516.56 507.54 540.45 507.54S566.73 492.52 589.72 492.52S615.45 507.92 638.99 507.92S665.23 492.42 688.25 492.42S713.9 504.98 737.52 504.98S762.45 503.4 786.78 503.4S812.51 501.14 836.05 501.14S861.93 492.65 885.31 492.65S909.98 501.21 934.58 501.21S960.52 492.31 983.85 492.31S1008.54 491.15 1033.11 491.15S1058.75 505.66 1082.38 505.66S1107.53 508.51 1131.64 508.51S1157.38 502.11 1180.91 502.11S1207.27 504.21 1230.17 504.21S1255.04 491.41 1279.44 491.41S1304.44 503.27 1328.71 503.27L1309 744 L-100 744 Z;M-100 498.36C-73.51 501.88 -74.53 511.43 -50.73 511.43S-24.56 503.04 -1.47 503.04S23.44 511 47.8 511S73.35 498.37 97.06 498.37S123 516.08 146.33 516.08S172.3 502.71 195.59 502.71S221.57 507.35 244.86 507.35S271.34 502.06 294.13 502.06S319.87 505.33 343.39 505.33S368.16 497.29 392.66 497.29S417.39 515.63 441.92 515.63S468.15 491.63 491.19 491.63S516.83 504.17 540.45 504.17S566.11 512.86 589.72 512.86S615.35 513.11 638.99 513.11S665.06 494.16 688.25 494.16S714.51 506.23 737.52 506.23S762.22 502.86 786.78 502.86S811.51 500.62 836.05 500.62S862.19 494.27 885.31 494.27S911.02 504.14 934.58 504.14S959.43 490.49 983.85 490.49S1009.09 508.92 1033.11 508.92S1058.25 500.03 1082.38 500.03S1108.02 491.51 1131.64 491.51S1156.53 494.54 1180.91 494.54S1206.48 511.15 1230.17 511.15S1256.66 489.93 1279.44 489.93S1304.97 516.46 1328.71 516.46L1309 744 L-100 744 Z"></animate>
      <animateTransform attributeName="transform" type="translate" dur="350s" begin="-105s"
        repeatCount="indefinite" values="0;10;0" calcMode="spline"
        keySplines="0.3 0 0.7 1;0.3 0 0.7 1"></animateTransform>
    </path>
    <path
      d="M-100 511.54C-73.65 521.46 -74.53 535.21 -49.32 535.21S-23.79 515.61 1.37 515.61S28.01 522.92 52.05 522.92S78.82 509.61 102.73 509.61S128.56 529.67 153.42 529.67S179.61 510.76 204.1 510.76S230.41 511.56 254.78 511.56S280.64 516.11 305.47 516.11S331.14 535.51 356.15 535.51S383.08 506.32 406.83 506.32S433.63 513.59 457.52 513.59S483.77 523.28 508.2 523.28S534.09 528.22 558.88 528.22S584.56 507.71 609.57 507.71S635.59 538.4 660.25 538.4S687.14 515.65 710.94 515.65S736.68 526.7 761.62 526.7S787.38 519.04 812.3 519.04S839.11 531.06 862.99 531.06S889.05 522.75 913.67 522.75S939.61 537.52 964.35 537.52S990.44 527.55 1015.04 527.55S1041.38 534.62 1065.72 534.62S1092.62 522.59 1116.4 522.59S1142.38 535.67 1167.09 535.67S1192.64 523.73 1217.77 523.73S1244.44 532.46 1268.45 532.46S1293.9 511.04 1319.14 511.04L1309 744 L-100 744 Z"
      fill="#5a7f9b" stroke-width="0">
      <animate attributeName="d" dur="300s" repeatCount="indefinite"
        values="M-100 511.54C-73.65 521.46 -74.53 535.21 -49.32 535.21S-23.79 515.61 1.37 515.61S28.01 522.92 52.05 522.92S78.82 509.61 102.73 509.61S128.56 529.67 153.42 529.67S179.61 510.76 204.1 510.76S230.41 511.56 254.78 511.56S280.64 516.11 305.47 516.11S331.14 535.51 356.15 535.51S383.08 506.32 406.83 506.32S433.63 513.59 457.52 513.59S483.77 523.28 508.2 523.28S534.09 528.22 558.88 528.22S584.56 507.71 609.57 507.71S635.59 538.4 660.25 538.4S687.14 515.65 710.94 515.65S736.68 526.7 761.62 526.7S787.38 519.04 812.3 519.04S839.11 531.06 862.99 531.06S889.05 522.75 913.67 522.75S939.61 537.52 964.35 537.52S990.44 527.55 1015.04 527.55S1041.38 534.62 1065.72 534.62S1092.62 522.59 1116.4 522.59S1142.38 535.67 1167.09 535.67S1192.64 523.73 1217.77 523.73S1244.44 532.46 1268.45 532.46S1293.9 511.04 1319.14 511.04L1309 744 L-100 744 Z;M-100 522.68C-72.99 508.1 -74.27 515.06 -49.32 515.06S-23.38 508.37 1.37 508.37S27.76 522.96 52.05 522.96S78.57 523.89 102.73 523.89S129.48 526.28 153.42 526.28S180.13 525.04 204.1 525.04S230.62 527.7 254.78 527.7S281.98 515.22 305.47 515.22S330.99 528.06 356.15 528.06S382.17 514.99 406.83 514.99S432.92 536.61 457.52 536.61S483.61 517.23 508.2 517.23S534.7 533.16 558.88 533.16S585.28 523.11 609.57 523.11S635.96 522.13 660.25 522.13S685.65 508.99 710.94 508.99S736.94 526.4 761.62 526.4S788.71 523.95 812.3 523.95S839.25 538.93 862.99 538.93S889.24 522.15 913.67 522.15S939.59 507.59 964.35 507.59S990.06 514.62 1015.04 514.62S1041.37 534.5 1065.72 534.5S1092.91 523.77 1116.4 523.77S1143.3 523.18 1167.09 523.18S1193.03 518.74 1217.77 518.74S1243.16 522.35 1268.45 522.35S1294.07 532.36 1319.14 532.36L1309 744 L-100 744 Z;M-100 511.54C-73.65 521.46 -74.53 535.21 -49.32 535.21S-23.79 515.61 1.37 515.61S28.01 522.92 52.05 522.92S78.82 509.61 102.73 509.61S128.56 529.67 153.42 529.67S179.61 510.76 204.1 510.76S230.41 511.56 254.78 511.56S280.64 516.11 305.47 516.11S331.14 535.51 356.15 535.51S383.08 506.32 406.83 506.32S433.63 513.59 457.52 513.59S483.77 523.28 508.2 523.28S534.09 528.22 558.88 528.22S584.56 507.71 609.57 507.71S635.59 538.4 660.25 538.4S687.14 515.65 710.94 515.65S736.68 526.7 761.62 526.7S787.38 519.04 812.3 519.04S839.11 531.06 862.99 531.06S889.05 522.75 913.67 522.75S939.61 537.52 964.35 537.52S990.44 527.55 1015.04 527.55S1041.38 534.62 1065.72 534.62S1092.62 522.59 1116.4 522.59S1142.38 535.67 1167.09 535.67S1192.64 523.73 1217.77 523.73S1244.44 532.46 1268.45 532.46S1293.9 511.04 1319.14 511.04L1309 744 L-100 744 Z"></animate>
      <animateTransform attributeName="transform" type="translate" dur="300s" begin="-120s"
        repeatCount="indefinite" values="0;10;0" calcMode="spline"
        keySplines="0.3 0 0.7 1;0.3 0 0.7 1"></animateTransform>
    </path>
    <path
      d="M-100 536.5C-72.11 542.25 -73.83 542.87 -47.81 542.87S-20.9 536.65 4.37 536.65S30.83 553.47 56.56 553.47S83.77 532 108.74 532S135.23 545.73 160.93 545.73S188.33 550.25 213.11 550.25S239.49 524.81 265.3 524.81S291.9 537.27 317.48 537.27S344.31 559.86 369.67 559.86S397.15 534.11 421.85 534.11S449.65 533.55 474.04 533.55S501.18 537.78 526.22 537.78S552.71 561.71 578.41 561.71S604.9 527.95 630.59 527.95S657.68 561.23 682.78 561.23S708.97 534.03 734.96 534.03S762.65 556.3 787.15 556.3S813.52 525.26 839.33 525.26S866.11 552.56 891.52 552.56S919.16 527.9 943.7 527.9S969.94 548.16 995.89 548.16S1022.52 540.45 1048.07 540.45S1075.37 556.45 1100.26 556.45S1126.54 529.11 1152.44 529.11S1179.37 544.38 1204.63 544.38S1231.29 540.84 1256.81 540.84S1283.2 552.88 1309 552.88S1335.51 539.08 1361.19 539.08L1309 744 L-100 744 Z"
      fill="#4f738e" stroke-width="0">
      <animate attributeName="d" dur="250s" repeatCount="indefinite"
        values="M-100 536.5C-72.11 542.25 -73.83 542.87 -47.81 542.87S-20.9 536.65 4.37 536.65S30.83 553.47 56.56 553.47S83.77 532 108.74 532S135.23 545.73 160.93 545.73S188.33 550.25 213.11 550.25S239.49 524.81 265.3 524.81S291.9 537.27 317.48 537.27S344.31 559.86 369.67 559.86S397.15 534.11 421.85 534.11S449.65 533.55 474.04 533.55S501.18 537.78 526.22 537.78S552.71 561.71 578.41 561.71S604.9 527.95 630.59 527.95S657.68 561.23 682.78 561.23S708.97 534.03 734.96 534.03S762.65 556.3 787.15 556.3S813.52 525.26 839.33 525.26S866.11 552.56 891.52 552.56S919.16 527.9 943.7 527.9S969.94 548.16 995.89 548.16S1022.52 540.45 1048.07 540.45S1075.37 556.45 1100.26 556.45S1126.54 529.11 1152.44 529.11S1179.37 544.38 1204.63 544.38S1231.29 540.84 1256.81 540.84S1283.2 552.88 1309 552.88S1335.51 539.08 1361.19 539.08L1309 744 L-100 744 Z;M-100 539.78C-73.89 539.69 -72.37 554.84 -47.81 554.84S-19.93 529.31 4.37 529.31S32.11 549.43 56.56 549.43S84.05 541.79 108.74 541.79S135.5 545.94 160.93 545.94S187.56 546.15 213.11 546.15S239.33 547.64 265.3 547.64S292.78 527.25 317.48 527.25S344.53 559.96 369.67 559.96S396.68 537.55 421.85 537.55S448.37 543.86 474.04 543.86S501.29 538.7 526.22 538.7S554.15 548.2 578.41 548.2S604.51 528.95 630.59 528.95S657.75 561.54 682.78 561.54S710.46 529.28 734.96 529.28S761.37 553.13 787.15 553.13S814.55 534.05 839.33 534.05S866.97 544.9 891.52 544.9S918.49 537.86 943.7 537.86S971.32 559.85 995.89 559.85S1023.53 542.78 1048.07 542.78S1074.74 527.12 1100.26 527.12S1126.65 534.48 1152.44 534.48S1180.32 556.62 1204.63 556.62S1231.96 528.46 1256.81 528.46S1283.84 548.28 1309 548.28S1336.92 527.18 1361.19 527.18L1309 744 L-100 744 Z;M-100 536.5C-72.11 542.25 -73.83 542.87 -47.81 542.87S-20.9 536.65 4.37 536.65S30.83 553.47 56.56 553.47S83.77 532 108.74 532S135.23 545.73 160.93 545.73S188.33 550.25 213.11 550.25S239.49 524.81 265.3 524.81S291.9 537.27 317.48 537.27S344.31 559.86 369.67 559.86S397.15 534.11 421.85 534.11S449.65 533.55 474.04 533.55S501.18 537.78 526.22 537.78S552.71 561.71 578.41 561.71S604.9 527.95 630.59 527.95S657.68 561.23 682.78 561.23S708.97 534.03 734.96 534.03S762.65 556.3 787.15 556.3S813.52 525.26 839.33 525.26S866.11 552.56 891.52 552.56S919.16 527.9 943.7 527.9S969.94 548.16 995.89 548.16S1022.52 540.45 1048.07 540.45S1075.37 556.45 1100.26 556.45S1126.54 529.11 1152.44 529.11S1179.37 544.38 1204.63 544.38S1231.29 540.84 1256.81 540.84S1283.2 552.88 1309 552.88S1335.51 539.08 1361.19 539.08L1309 744 L-100 744 Z"></animate>
      <animateTransform attributeName="transform" type="translate" dur="250s" begin="-125s"
        repeatCount="indefinite" values="0;10;0" calcMode="spline"
        keySplines="0.3 0 0.7 1;0.3 0 0.7 1"></animateTransform>
    </path>
    <path
      d="M-100 561.25C-71.25 557.19 -71.89 572.81 -46.22 572.81S-18.82 554.31 7.56 554.31S35.74 572.23 61.34 572.23S89.41 581.31 115.11 581.31S142.18 568.85 168.89 568.85S196.5 552.45 222.67 552.45S251.17 549.88 276.45 549.88S304.11 554.01 330.23 554.01S357.62 578.86 384.01 578.86S412.13 552.9 437.79 552.9S465.44 582.72 491.56 582.72S519.32 548.72 545.34 548.72S572.79 574.25 599.12 574.25S626.79 555.91 652.9 555.91S680.07 571.36 706.68 571.36S735.1 553.26 760.46 553.26S787.81 572.3 814.24 572.3S842.36 547.04 868.02 547.04S895.54 567.93 921.79 567.93S950.53 551.68 975.57 551.68S1002.74 570.59 1029.35 570.59S1057.16 561.61 1083.13 561.61S1111.51 579.15 1136.91 579.15S1165.12 550.39 1190.69 550.39S1217.99 574.69 1244.47 574.69S1273.15 560.26 1298.24 560.26S1325.18 581.38 1352.02 581.38L1309 744 L-100 744 Z"
      fill="#446681" stroke-width="0">
      <animate attributeName="d" dur="200s" repeatCount="indefinite"
        values="M-100 561.25C-71.25 557.19 -71.89 572.81 -46.22 572.81S-18.82 554.31 7.56 554.31S35.74 572.23 61.34 572.23S89.41 581.31 115.11 581.31S142.18 568.85 168.89 568.85S196.5 552.45 222.67 552.45S251.17 549.88 276.45 549.88S304.11 554.01 330.23 554.01S357.62 578.86 384.01 578.86S412.13 552.9 437.79 552.9S465.44 582.72 491.56 582.72S519.32 548.72 545.34 548.72S572.79 574.25 599.12 574.25S626.79 555.91 652.9 555.91S680.07 571.36 706.68 571.36S735.1 553.26 760.46 553.26S787.81 572.3 814.24 572.3S842.36 547.04 868.02 547.04S895.54 567.93 921.79 567.93S950.53 551.68 975.57 551.68S1002.74 570.59 1029.35 570.59S1057.16 561.61 1083.13 561.61S1111.51 579.15 1136.91 579.15S1165.12 550.39 1190.69 550.39S1217.99 574.69 1244.47 574.69S1273.15 560.26 1298.24 560.26S1325.18 581.38 1352.02 581.38L1309 744 L-100 744 Z;M-100 568.33C-71.55 575.13 -71.88 582.03 -46.22 582.03S-18.88 551.64 7.56 551.64S34.89 546.49 61.34 546.49S89.5 561.1 115.11 561.1S142.73 557.9 168.89 557.9S196.59 561.4 222.67 561.4S249.76 583.34 276.45 583.34S304.12 546.13 330.23 546.13S358.84 552.74 384.01 552.74S411.16 560.53 437.79 560.53S465.55 579.58 491.56 579.58S519.36 552.85 545.34 552.85S572.45 566.41 599.12 566.41S626.95 544.52 652.9 544.52S680.02 577.74 706.68 577.74S734.99 543.31 760.46 543.31S788.51 583.4 814.24 583.4S842.93 555.56 868.02 555.56S895.41 581.69 921.79 581.69S950.04 558.32 975.57 558.32S1004.28 577.87 1029.35 577.87S1057.05 544.17 1083.13 544.17S1110.08 566.8 1136.91 566.8S1165.11 582.01 1190.69 582.01S1219.35 554.16 1244.47 554.16S1272.38 557.43 1298.24 557.43S1325.9 557.96 1352.02 557.96L1309 744 L-100 744 Z;M-100 561.25C-71.25 557.19 -71.89 572.81 -46.22 572.81S-18.82 554.31 7.56 554.31S35.74 572.23 61.34 572.23S89.41 581.31 115.11 581.31S142.18 568.85 168.89 568.85S196.5 552.45 222.67 552.45S251.17 549.88 276.45 549.88S304.11 554.01 330.23 554.01S357.62 578.86 384.01 578.86S412.13 552.9 437.79 552.9S465.44 582.72 491.56 582.72S519.32 548.72 545.34 548.72S572.79 574.25 599.12 574.25S626.79 555.91 652.9 555.91S680.07 571.36 706.68 571.36S735.1 553.26 760.46 553.26S787.81 572.3 814.24 572.3S842.36 547.04 868.02 547.04S895.54 567.93 921.79 567.93S950.53 551.68 975.57 551.68S1002.74 570.59 1029.35 570.59S1057.16 561.61 1083.13 561.61S1111.51 579.15 1136.91 579.15S1165.12 550.39 1190.69 550.39S1217.99 574.69 1244.47 574.69S1273.15 560.26 1298.24 560.26S1325.18 581.38 1352.02 581.38L1309 744 L-100 744 Z"></animate>
      <animateTransform attributeName="transform" type="translate" dur="200s" begin="-120s"
        repeatCount="indefinite" values="0;10;0" calcMode="spline"
        keySplines="0.3 0 0.7 1;0.3 0 0.7 1"></animateTransform>
    </path>
    <path
      d="M-100 564.99C-70.89 566 -71.75 600.33 -44.53 600.33S-15.32 579.96 10.94 579.96S39.87 601.74 66.42 601.74S94.63 600.08 121.89 600.08S150.9 603 177.36 603S205.71 599.82 232.83 599.82S260.81 567.45 288.31 567.45S316.22 594.1 343.78 594.1S371.56 602.93 399.25 602.93S427.48 568.6 454.72 568.6S482.95 591.82 510.2 591.82S539.66 570.82 565.67 570.82S595 594.63 621.14 594.63S649.25 569.88 676.61 569.88S704.89 591.25 732.09 591.25S760.33 562.13 787.56 562.13S816 591.31 843.03 591.31S871.44 572.13 898.5 572.13S927.5 598.27 953.98 598.27S982.04 570.8 1009.45 570.8S1037.96 604.82 1064.92 604.82S1093.12 562.58 1120.39 562.58S1148.56 599.14 1175.87 599.14S1204.33 576.45 1231.34 576.45S1260.87 599.24 1286.81 599.24S1315.52 596.93 1342.28 596.93L1309 744 L-100 744 Z"
      fill="#3a5b75" stroke-width="0">
      <animate attributeName="d" dur="150s" repeatCount="indefinite"
        values="M-100 564.99C-70.89 566 -71.75 600.33 -44.53 600.33S-15.32 579.96 10.94 579.96S39.87 601.74 66.42 601.74S94.63 600.08 121.89 600.08S150.9 603 177.36 603S205.71 599.82 232.83 599.82S260.81 567.45 288.31 567.45S316.22 594.1 343.78 594.1S371.56 602.93 399.25 602.93S427.48 568.6 454.72 568.6S482.95 591.82 510.2 591.82S539.66 570.82 565.67 570.82S595 594.63 621.14 594.63S649.25 569.88 676.61 569.88S704.89 591.25 732.09 591.25S760.33 562.13 787.56 562.13S816 591.31 843.03 591.31S871.44 572.13 898.5 572.13S927.5 598.27 953.98 598.27S982.04 570.8 1009.45 570.8S1037.96 604.82 1064.92 604.82S1093.12 562.58 1120.39 562.58S1148.56 599.14 1175.87 599.14S1204.33 576.45 1231.34 576.45S1260.87 599.24 1286.81 599.24S1315.52 596.93 1342.28 596.93L1309 744 L-100 744 Z;M-100 568.85C-70.89 574.92 -70.97 595.44 -44.53 595.44S-15.09 572.33 10.94 572.33S38.73 595.32 66.42 595.32S95.37 593.88 121.89 593.88S149.72 593.82 177.36 593.82S206.64 569.18 232.83 569.18S261.93 601.43 288.31 601.43S317.32 568.1 343.78 568.1S373.25 592.86 399.25 592.86S427.52 576.48 454.72 576.48S483.9 588.5 510.2 588.5S539.03 576.69 565.67 576.69S594.51 596.72 621.14 596.72S649.42 563.54 676.61 563.54S705.72 599.86 732.09 599.86S760.91 573.55 787.56 573.55S816.87 602.11 843.03 602.11S870.93 578.58 898.5 578.58S926.77 572.38 953.98 572.38S981.92 571.26 1009.45 571.26S1037.93 602.71 1064.92 602.71S1093.95 574.22 1120.39 574.22S1149.54 603.82 1175.87 603.82S1203.62 572.42 1231.34 572.42S1260.25 602.22 1286.81 602.22S1315.37 564.43 1342.28 564.43L1309 744 L-100 744 Z;M-100 564.99C-70.89 566 -71.75 600.33 -44.53 600.33S-15.32 579.96 10.94 579.96S39.87 601.74 66.42 601.74S94.63 600.08 121.89 600.08S150.9 603 177.36 603S205.71 599.82 232.83 599.82S260.81 567.45 288.31 567.45S316.22 594.1 343.78 594.1S371.56 602.93 399.25 602.93S427.48 568.6 454.72 568.6S482.95 591.82 510.2 591.82S539.66 570.82 565.67 570.82S595 594.63 621.14 594.63S649.25 569.88 676.61 569.88S704.89 591.25 732.09 591.25S760.33 562.13 787.56 562.13S816 591.31 843.03 591.31S871.44 572.13 898.5 572.13S927.5 598.27 953.98 598.27S982.04 570.8 1009.45 570.8S1037.96 604.82 1064.92 604.82S1093.12 562.58 1120.39 562.58S1148.56 599.14 1175.87 599.14S1204.33 576.45 1231.34 576.45S1260.87 599.24 1286.81 599.24S1315.52 596.93 1342.28 596.93L1309 744 L-100 744 Z"></animate>
      <animateTransform attributeName="transform" type="translate" dur="150s" begin="-105s"
        repeatCount="indefinite" values="0;10;0" calcMode="spline"
        keySplines="0.3 0 0.7 1;0.3 0 0.7 1"></animateTransform>
    </path>
    <path
      d="M-100 589.99C-70.48 583.11 -70.81 626.44 -42.72 626.44S-12.32 598.82 14.55 598.82S43.27 626.5 71.83 626.5S101.19 582.73 129.11 582.73S158.59 621.48 186.38 621.48S216.82 610.68 243.66 610.68S274.07 612.28 300.93 612.28S330 590.38 358.21 590.38S387.36 618.5 415.49 618.5S445.3 593.31 472.76 593.31S501.94 581.8 530.04 581.8S560.28 584.72 587.32 584.72S616.6 612.61 644.59 612.61S674.61 593.68 701.87 593.68S730.54 620.65 759.15 620.65S788.71 617.05 816.42 617.05S846.79 586.39 873.7 586.39S903.95 616.19 930.98 616.19S959.71 625.25 988.25 625.25S1018 624.5 1045.53 624.5S1075.62 624.23 1102.8 624.23S1131.92 610.14 1160.08 610.14S1189.77 591.31 1217.36 591.31S1246.09 592.91 1274.63 592.91S1305.02 625.8 1331.91 625.8L1309 744 L-100 744 Z"
      fill="#2f4f68" stroke-width="0">
      <animate attributeName="d" dur="100s" repeatCount="indefinite"
        values="M-100 589.99C-70.48 583.11 -70.81 626.44 -42.72 626.44S-12.32 598.82 14.55 598.82S43.27 626.5 71.83 626.5S101.19 582.73 129.11 582.73S158.59 621.48 186.38 621.48S216.82 610.68 243.66 610.68S274.07 612.28 300.93 612.28S330 590.38 358.21 590.38S387.36 618.5 415.49 618.5S445.3 593.31 472.76 593.31S501.94 581.8 530.04 581.8S560.28 584.72 587.32 584.72S616.6 612.61 644.59 612.61S674.61 593.68 701.87 593.68S730.54 620.65 759.15 620.65S788.71 617.05 816.42 617.05S846.79 586.39 873.7 586.39S903.95 616.19 930.98 616.19S959.71 625.25 988.25 625.25S1018 624.5 1045.53 624.5S1075.62 624.23 1102.8 624.23S1131.92 610.14 1160.08 610.14S1189.77 591.31 1217.36 591.31S1246.09 592.91 1274.63 592.91S1305.02 625.8 1331.91 625.8L1309 744 L-100 744 Z;M-100 583.64C-70.25 580.41 -71.02 614.7 -42.72 614.7S-13.47 593.53 14.55 593.53S44.45 597.72 71.83 597.72S101.35 583.74 129.11 583.74S158.41 595.2 186.38 595.2S215.77 584.69 243.66 584.69S273.68 592.86 300.93 592.86S330.92 593.46 358.21 593.46S387.56 612.49 415.49 612.49S445.88 596.78 472.76 596.78S502.28 621.49 530.04 621.49S559.73 582.47 587.32 582.47S617.81 617.05 644.59 617.05S674.52 586 701.87 586S732.05 628.14 759.15 628.14S788.44 589.12 816.42 589.12S845.37 622.42 873.7 622.42S904.03 592.32 930.98 592.32S960.57 624.49 988.25 624.49S1016.95 583.71 1045.53 583.71S1074.85 615.63 1102.8 615.63S1131.58 598.52 1160.08 598.52S1190.44 618.93 1217.36 618.93S1247.18 584.51 1274.63 584.51S1304.07 614.04 1331.91 614.04L1309 744 L-100 744 Z;M-100 589.99C-70.48 583.11 -70.81 626.44 -42.72 626.44S-12.32 598.82 14.55 598.82S43.27 626.5 71.83 626.5S101.19 582.73 129.11 582.73S158.59 621.48 186.38 621.48S216.82 610.68 243.66 610.68S274.07 612.28 300.93 612.28S330 590.38 358.21 590.38S387.36 618.5 415.49 618.5S445.3 593.31 472.76 593.31S501.94 581.8 530.04 581.8S560.28 584.72 587.32 584.72S616.6 612.61 644.59 612.61S674.61 593.68 701.87 593.68S730.54 620.65 759.15 620.65S788.71 617.05 816.42 617.05S846.79 586.39 873.7 586.39S903.95 616.19 930.98 616.19S959.71 625.25 988.25 625.25S1018 624.5 1045.53 624.5S1075.62 624.23 1102.8 624.23S1131.92 610.14 1160.08 610.14S1189.77 591.31 1217.36 591.31S1246.09 592.91 1274.63 592.91S1305.02 625.8 1331.91 625.8L1309 744 L-100 744 Z"></animate>
      <animateTransform attributeName="transform" type="translate" dur="100s" begin="-80s"
        repeatCount="indefinite" values="0;10;0" calcMode="spline"
        keySplines="0.3 0 0.7 1;0.3 0 0.7 1"></animateTransform>
    </path>
    <path
      d="M-100 613.94C-69.86 600.41 -68.79 614.05 -40.8 614.05S-11.02 616.82 18.4 616.82S48.87 647.42 77.61 647.42S108.36 650.6 136.81 650.6S166.66 647.34 196.01 647.34S225.88 600.79 255.21 600.79S285.2 650.17 314.41 650.17S344.08 600.21 373.61 600.21S404.06 649.91 432.82 649.91S462.55 611.57 492.02 611.57S522.32 647.56 551.22 647.56S582.11 604.18 610.42 604.18S641.31 643.96 669.62 643.96S700.8 616.89 728.82 616.89S759.87 606.41 788.03 606.41S819.19 609.39 847.23 609.39S878.63 640.66 906.43 640.66S936.98 646.89 965.63 646.89S995.99 646.25 1024.83 646.25S1055 602.29 1084.03 602.29S1115.16 642.57 1143.24 642.57S1173.12 635.7 1202.44 635.7S1232.12 615.01 1261.64 615.01S1292.78 605.67 1320.84 605.67L1309 744 L-100 744 Z"
      fill="#25445c" stroke-width="0">
      <animate attributeName="d" dur="50s" repeatCount="indefinite"
        values="M-100 613.94C-69.86 600.41 -68.79 614.05 -40.8 614.05S-11.02 616.82 18.4 616.82S48.87 647.42 77.61 647.42S108.36 650.6 136.81 650.6S166.66 647.34 196.01 647.34S225.88 600.79 255.21 600.79S285.2 650.17 314.41 650.17S344.08 600.21 373.61 600.21S404.06 649.91 432.82 649.91S462.55 611.57 492.02 611.57S522.32 647.56 551.22 647.56S582.11 604.18 610.42 604.18S641.31 643.96 669.62 643.96S700.8 616.89 728.82 616.89S759.87 606.41 788.03 606.41S819.19 609.39 847.23 609.39S878.63 640.66 906.43 640.66S936.98 646.89 965.63 646.89S995.99 646.25 1024.83 646.25S1055 602.29 1084.03 602.29S1115.16 642.57 1143.24 642.57S1173.12 635.7 1202.44 635.7S1232.12 615.01 1261.64 615.01S1292.78 605.67 1320.84 605.67L1309 744 L-100 744 Z;M-100 607.87C-70.28 616.14 -68.95 650.86 -40.8 650.86S-10.03 616.84 18.4 616.84S49.3 635.13 77.61 635.13S107.76 616.4 136.81 616.4S167.4 642.49 196.01 642.49S226.67 615.81 255.21 615.81S286.58 640.23 314.41 640.23S344.7 606 373.61 606S404.95 640.47 432.82 640.47S463.09 607.97 492.02 607.97S521.68 650.06 551.22 650.06S582.01 602.33 610.42 602.33S640.34 635.37 669.62 635.37S701.06 604.97 728.82 604.97S759.23 650.92 788.03 650.92S817.77 610.1 847.23 610.1S877.02 632.48 906.43 632.48S937.69 607.16 965.63 607.16S997.09 648.45 1024.83 648.45S1056.06 614.72 1084.03 614.72S1113.84 614.82 1143.24 614.82S1173.77 608.22 1202.44 608.22S1233.03 640.14 1261.64 640.14S1292.05 614.57 1320.84 614.57L1309 744 L-100 744 Z;M-100 613.94C-69.86 600.41 -68.79 614.05 -40.8 614.05S-11.02 616.82 18.4 616.82S48.87 647.42 77.61 647.42S108.36 650.6 136.81 650.6S166.66 647.34 196.01 647.34S225.88 600.79 255.21 600.79S285.2 650.17 314.41 650.17S344.08 600.21 373.61 600.21S404.06 649.91 432.82 649.91S462.55 611.57 492.02 611.57S522.32 647.56 551.22 647.56S582.11 604.18 610.42 604.18S641.31 643.96 669.62 643.96S700.8 616.89 728.82 616.89S759.87 606.41 788.03 606.41S819.19 609.39 847.23 609.39S878.63 640.66 906.43 640.66S936.98 646.89 965.63 646.89S995.99 646.25 1024.83 646.25S1055 602.29 1084.03 602.29S1115.16 642.57 1143.24 642.57S1173.12 635.7 1202.44 635.7S1232.12 615.01 1261.64 615.01S1292.78 605.67 1320.84 605.67L1309 744 L-100 744 Z"></animate>
      <animateTransform attributeName="transform" type="translate" dur="50s" begin="-45s"
        repeatCount="indefinite" values="0;10;0" calcMode="spline"
        keySplines="0.3 0 0.7 1;0.3 0 0.7 1"></animateTransform>
    </path>
  </g>
</svg>